<svg width="15" height="14" viewBox="0 0 15 14" fill="none" xmlns="http://www.w3.org/2000/svg">
<path fill-rule="evenodd" clip-rule="evenodd" d="M4.58366 1.02087C4.82528 1.02087 5.02116 1.21675 5.02116 1.45837V1.90329C5.40734 1.89587 5.83281 1.89587 6.30075 1.89587H8.6999C9.16784 1.89587 9.59331 1.89587 9.97949 1.90329V1.45837C9.97949 1.21675 10.1754 1.02087 10.417 1.02087C10.6586 1.02087 10.8545 1.21675 10.8545 1.45837V1.94084C11.0061 1.9524 11.1497 1.96693 11.2856 1.9852C11.9695 2.07715 12.5231 2.27089 12.9596 2.70743C13.3961 3.14398 13.5899 3.69753 13.6818 4.38144C13.7112 4.60001 13.7309 4.83855 13.7442 5.09842C13.7616 5.14566 13.7712 5.19673 13.7712 5.25004C13.7712 5.29048 13.7657 5.32963 13.7554 5.3668C13.7712 5.83462 13.7712 6.36581 13.7712 6.96713V8.19961C13.7712 9.27164 13.7712 10.1208 13.6818 10.7853C13.5899 11.4692 13.3961 12.0228 12.9596 12.4593C12.5231 12.8959 11.9695 13.0896 11.2856 13.1815C10.621 13.2709 9.77193 13.2709 8.6999 13.2709H6.30075C5.22872 13.2709 4.3796 13.2709 3.71506 13.1815C3.03115 13.0896 2.4776 12.8959 2.04105 12.4593C1.60451 12.0228 1.41077 11.4692 1.31882 10.7853C1.22948 10.1208 1.22948 9.27164 1.22949 8.19962V6.96713C1.22949 6.36581 1.22948 5.83462 1.24525 5.36681C1.23498 5.32963 1.22949 5.29048 1.22949 5.25004C1.22949 5.19673 1.23903 5.14565 1.25648 5.09841C1.26972 4.83855 1.28944 4.60001 1.31882 4.38144C1.41077 3.69753 1.60451 3.14398 2.04105 2.70743C2.4776 2.27089 3.03115 2.07715 3.71506 1.9852C3.85094 1.96693 3.99453 1.9524 4.14616 1.94084V1.45837C4.14616 1.21675 4.34203 1.02087 4.58366 1.02087ZM2.11213 5.68754C2.10468 6.0683 2.10449 6.50187 2.10449 7.00004V8.16671C2.10449 9.27902 2.10542 10.0692 2.18602 10.6687C2.26492 11.2556 2.4129 11.5937 2.65977 11.8406C2.90664 12.0875 3.24477 12.2354 3.83165 12.3143C4.43112 12.3949 5.22135 12.3959 6.33366 12.3959H8.66699C9.7793 12.3959 10.5695 12.3949 11.169 12.3143C11.7559 12.2354 12.094 12.0875 12.3409 11.8406C12.5878 11.5937 12.7357 11.2556 12.8146 10.6687C12.8952 10.0692 12.8962 9.27902 12.8962 8.16671V7.00004C12.8962 6.50187 12.896 6.0683 12.8885 5.68754H2.11213ZM12.8485 4.81254H2.15214C2.16148 4.70206 2.17266 4.59743 2.18602 4.49804C2.26492 3.91115 2.4129 3.57302 2.65977 3.32615C2.90664 3.07928 3.24477 2.9313 3.83165 2.8524C4.43113 2.7718 5.22135 2.77087 6.33366 2.77087H8.66699C9.7793 2.77087 10.5695 2.7718 11.169 2.8524C11.7559 2.9313 12.094 3.07928 12.3409 3.32615C12.5878 3.57302 12.7357 3.91115 12.8146 4.49804C12.828 4.59743 12.8392 4.70206 12.8485 4.81254ZM9.83366 7.72921C10.0753 7.72921 10.2712 7.92508 10.2712 8.16671V8.89588H11.0003C11.2419 8.89588 11.4378 9.09176 11.4378 9.33338C11.4378 9.57501 11.2419 9.77088 11.0003 9.77088H10.2712V10.5C10.2712 10.7417 10.0753 10.9375 9.83366 10.9375C9.59203 10.9375 9.39616 10.7417 9.39616 10.5V9.77088H8.66699C8.42537 9.77088 8.22949 9.57501 8.22949 9.33338C8.22949 9.09176 8.42537 8.89588 8.66699 8.89588L9.39616 8.89588V8.16671C9.39616 7.92508 9.59203 7.72921 9.83366 7.72921Z" fill="#1E6BDD"/>
</svg>
