<svg width="20" height="20" viewBox="0 0 20 20" fill="none" xmlns="http://www.w3.org/2000/svg">
<path d="M15.8337 3.33317H15.0003V2.49984C15.0003 1.99984 14.667 1.6665 14.167 1.6665C13.667 1.6665 13.3337 1.99984 13.3337 2.49984V3.33317H6.66699V2.49984C6.66699 1.99984 6.33366 1.6665 5.83366 1.6665C5.33366 1.6665 5.00033 1.99984 5.00033 2.49984V3.33317H4.16699C2.75033 3.33317 1.66699 4.4165 1.66699 5.83317V6.6665H18.3337V5.83317C18.3337 4.4165 17.2503 3.33317 15.8337 3.33317ZM1.66699 15.8332C1.66699 17.2498 2.75033 18.3332 4.16699 18.3332H15.8337C17.2503 18.3332 18.3337 17.2498 18.3337 15.8332V8.33317H1.66699V15.8332ZM14.167 9.99984C14.667 9.99984 15.0003 10.3332 15.0003 10.8332C15.0003 11.3332 14.667 11.6665 14.167 11.6665C13.667 11.6665 13.3337 11.3332 13.3337 10.8332C13.3337 10.3332 13.667 9.99984 14.167 9.99984ZM14.167 13.3332C14.667 13.3332 15.0003 13.6665 15.0003 14.1665C15.0003 14.6665 14.667 14.9998 14.167 14.9998C13.667 14.9998 13.3337 14.6665 13.3337 14.1665C13.3337 13.6665 13.667 13.3332 14.167 13.3332ZM10.0003 9.99984C10.5003 9.99984 10.8337 10.3332 10.8337 10.8332C10.8337 11.3332 10.5003 11.6665 10.0003 11.6665C9.50033 11.6665 9.16699 11.3332 9.16699 10.8332C9.16699 10.3332 9.50033 9.99984 10.0003 9.99984ZM10.0003 13.3332C10.5003 13.3332 10.8337 13.6665 10.8337 14.1665C10.8337 14.6665 10.5003 14.9998 10.0003 14.9998C9.50033 14.9998 9.16699 14.6665 9.16699 14.1665C9.16699 13.6665 9.50033 13.3332 10.0003 13.3332ZM5.83366 9.99984C6.33366 9.99984 6.66699 10.3332 6.66699 10.8332C6.66699 11.3332 6.33366 11.6665 5.83366 11.6665C5.33366 11.6665 5.00033 11.3332 5.00033 10.8332C5.00033 10.3332 5.33366 9.99984 5.83366 9.99984ZM5.83366 13.3332C6.33366 13.3332 6.66699 13.6665 6.66699 14.1665C6.66699 14.6665 6.33366 14.9998 5.83366 14.9998C5.33366 14.9998 5.00033 14.6665 5.00033 14.1665C5.00033 13.6665 5.33366 13.3332 5.83366 13.3332Z" fill="#ADADAD"/>
</svg>
