<svg width="20" height="20" viewBox="0 0 20 20" fill="none" xmlns="http://www.w3.org/2000/svg">
<path d="M7.49996 13.3337C7.49996 13.7939 7.12686 14.167 6.66663 14.167C6.20639 14.167 5.83329 13.7939 5.83329 13.3337C5.83329 12.8734 6.20639 12.5003 6.66663 12.5003C7.12686 12.5003 7.49996 12.8734 7.49996 13.3337Z" fill="#1E6BDD"/>
<path d="M10.8333 13.3337C10.8333 13.7939 10.4602 14.167 9.99996 14.167C9.53972 14.167 9.16663 13.7939 9.16663 13.3337C9.16663 12.8734 9.53972 12.5003 9.99996 12.5003C10.4602 12.5003 10.8333 12.8734 10.8333 13.3337Z" fill="#1E6BDD"/>
<path d="M13.3333 14.167C13.7935 14.167 14.1666 13.7939 14.1666 13.3337C14.1666 12.8734 13.7935 12.5003 13.3333 12.5003C12.8731 12.5003 12.5 12.8734 12.5 13.3337C12.5 13.7939 12.8731 14.167 13.3333 14.167Z" fill="#1E6BDD"/>
<path fill-rule="evenodd" clip-rule="evenodd" d="M4.37496 6.66699V7.75263C4.18593 7.76592 4.00777 7.78323 3.84017 7.80576C3.09008 7.90661 2.45852 8.12235 1.95692 8.62395C1.45532 9.12555 1.23958 9.75711 1.13873 10.5072C1.0416 11.2297 1.04161 12.1483 1.04163 13.2879V13.3794C1.04161 14.519 1.0416 15.4376 1.13873 16.1601C1.23958 16.9102 1.45532 17.5418 1.95692 18.0434C2.45852 18.545 3.09008 18.7607 3.84017 18.8616C4.56264 18.9587 5.48124 18.9587 6.6209 18.9587H13.379C14.5187 18.9587 15.4373 18.9587 16.1598 18.8616C16.9098 18.7607 17.5414 18.545 18.043 18.0434C18.5446 17.5418 18.7603 16.9102 18.8612 16.1601C18.9583 15.4376 18.9583 14.519 18.9583 13.3794V13.2879C18.9583 12.1483 18.9583 11.2297 18.8612 10.5072C18.7603 9.75711 18.5446 9.12555 18.043 8.62395C17.5414 8.12235 16.9098 7.90661 16.1598 7.80576C15.9921 7.78323 15.814 7.76592 15.625 7.75263V6.66699C15.625 3.56039 13.1066 1.04199 9.99996 1.04199C6.89336 1.04199 4.37496 3.56039 4.37496 6.66699ZM9.99996 2.29199C7.58372 2.29199 5.62496 4.25075 5.62496 6.66699V7.71153C5.9362 7.70865 6.26789 7.70865 6.62078 7.70866H13.379C13.7319 7.70865 14.0637 7.70865 14.375 7.71153V6.66699C14.375 4.25075 12.4162 2.29199 9.99996 2.29199ZM4.00673 9.04462C3.39525 9.12683 3.07144 9.2772 2.8408 9.50783C2.61017 9.73847 2.45979 10.0623 2.37758 10.6738C2.29295 11.3032 2.29163 12.1375 2.29163 13.3337C2.29163 14.5298 2.29295 15.3641 2.37758 15.9936C2.45979 16.605 2.61017 16.9288 2.8408 17.1595C3.07144 17.3901 3.39525 17.5405 4.00673 17.6227C4.63619 17.7073 5.47045 17.7087 6.66663 17.7087H13.3333C14.5295 17.7087 15.3637 17.7073 15.9932 17.6227C16.6047 17.5405 16.9285 17.3901 17.1591 17.1595C17.3898 16.9288 17.5401 16.605 17.6223 15.9936C17.707 15.3641 17.7083 14.5298 17.7083 13.3337C17.7083 12.1375 17.707 11.3032 17.6223 10.6738C17.5401 10.0623 17.3898 9.73847 17.1591 9.50783C16.9285 9.2772 16.6047 9.12683 15.9932 9.04462C15.3637 8.95999 14.5295 8.95866 13.3333 8.95866H6.66663C5.47045 8.95866 4.63619 8.95999 4.00673 9.04462Z" fill="#1E6BDD"/>
</svg>
