<svg width="18" height="18" viewBox="0 0 18 18" fill="none" xmlns="http://www.w3.org/2000/svg">
<path d="M7.35861 6.47308C7.11453 6.229 6.7188 6.229 6.47472 6.47308C6.23065 6.71716 6.23065 7.11289 6.47472 7.35696L8.11613 8.99836L6.47474 10.6397C6.23066 10.8838 6.23066 11.2796 6.47474 11.5236C6.71882 11.7677 7.11455 11.7677 7.35863 11.5236L9.00001 9.88225L10.6414 11.5236C10.8855 11.7677 11.2812 11.7677 11.5253 11.5236C11.7693 11.2795 11.7693 10.8838 11.5253 10.6397L9.88389 8.99836L11.5253 7.35698C11.7694 7.1129 11.7694 6.71717 11.5253 6.4731C11.2812 6.22902 10.8855 6.22902 10.6414 6.4731L9.00001 8.11448L7.35861 6.47308Z" fill="#FF7777"/>
<path fill-rule="evenodd" clip-rule="evenodd" d="M9 0.0400391C8.21873 0.0400391 7.47277 0.295525 6.26949 0.707635L5.66329 0.915153C4.42885 1.3377 3.47617 1.66381 2.79419 1.94086C2.45065 2.08042 2.15531 2.2156 1.91748 2.35371C1.68862 2.48663 1.45902 2.65241 1.30303 2.87466C1.14884 3.09434 1.06911 3.36441 1.01901 3.62439C0.966927 3.89467 0.93552 4.2189 0.915249 4.59117C0.875 5.33034 0.875 6.34297 0.875 7.6564V8.99117C0.875 14.0754 4.71502 16.513 6.99861 17.5105L7.02119 17.5204C7.30436 17.6441 7.57051 17.7604 7.87634 17.8387C8.19922 17.9214 8.54228 17.9567 9 17.9567C9.45772 17.9567 9.80078 17.9214 10.1237 17.8387C10.4295 17.7604 10.6956 17.6441 10.9788 17.5204L11.0014 17.5105C13.285 16.513 17.125 14.0754 17.125 8.99117V7.65655C17.125 6.34304 17.125 5.33037 17.0847 4.59117C17.0645 4.2189 17.0331 3.89467 16.981 3.62439C16.9309 3.36441 16.8512 3.09434 16.697 2.87466C16.541 2.65241 16.3114 2.48663 16.0825 2.35371C15.8447 2.2156 15.5493 2.08042 15.2058 1.94086C14.5238 1.66381 13.5711 1.3377 12.3367 0.915149L11.7305 0.707637C10.5272 0.295525 9.78127 0.0400391 9 0.0400391ZM6.56718 1.92695C7.91262 1.4664 8.45188 1.29004 9 1.29004C9.54812 1.29004 10.0874 1.4664 11.4328 1.92695L11.9102 2.09035C13.1707 2.52182 14.0899 2.83674 14.7353 3.09894C15.0575 3.22982 15.2909 3.33949 15.4548 3.43465C15.5356 3.48162 15.5914 3.52039 15.6286 3.55064C15.6601 3.57628 15.6722 3.5908 15.6739 3.59294C15.6755 3.59554 15.6859 3.61285 15.7005 3.65382C15.7171 3.70058 15.7356 3.76761 15.7536 3.86092C15.79 4.04978 15.8175 4.30922 15.8366 4.65914C15.8748 5.36013 15.875 6.33865 15.875 7.67892V8.99117C15.875 13.3038 12.6501 15.4263 10.501 16.365C10.1914 16.5003 10.0127 16.5768 9.81367 16.6277C9.6236 16.6764 9.39167 16.7067 9 16.7067C8.60833 16.7067 8.3764 16.6764 8.18633 16.6277C7.98732 16.5768 7.80856 16.5003 7.49899 16.365C5.34991 15.4263 2.125 13.3038 2.125 8.99117V7.67892C2.125 6.33865 2.12523 5.36013 2.1634 4.65914C2.18245 4.30922 2.21003 4.04978 2.24643 3.86092C2.26441 3.76761 2.28287 3.70058 2.29952 3.65382C2.31411 3.61288 2.32446 3.59556 2.32608 3.59294C2.3278 3.59083 2.33983 3.5763 2.37139 3.55064C2.40861 3.52039 2.46435 3.48162 2.54524 3.43465C2.70908 3.33949 2.9425 3.22982 3.26466 3.09894C3.91008 2.83674 4.82934 2.52182 6.08984 2.09035L6.56718 1.92695Z" fill="#FF7777"/>
</svg>
