<svg width="53" height="52" viewBox="0 0 53 52" fill="none" xmlns="http://www.w3.org/2000/svg">
<path d="M44.9167 13H8.08316" stroke="#1C3664" stroke-width="2.5" stroke-linecap="round"/>
<path d="M41.3056 18.417L40.309 33.3651C39.9255 39.1174 39.7338 41.9935 37.8596 43.7469C35.9854 45.5003 33.1029 45.5003 27.3378 45.5003H25.6622C19.8971 45.5003 17.0146 45.5003 15.1404 43.7469C13.2662 41.9935 13.0745 39.1174 12.691 33.3651L11.6945 18.417" stroke="#1C3664" stroke-width="2.5" stroke-linecap="round"/>
<path d="M21.0833 23.833L22.1667 34.6663" stroke="#F93C65" stroke-width="2.5" stroke-linecap="round"/>
<path d="M31.9167 23.833L30.8333 34.6663" stroke="#F93C65" stroke-width="2.5" stroke-linecap="round"/>
<path d="M14.5833 13C14.7044 13 14.765 13 14.8198 12.9986C16.604 12.9534 18.1779 11.819 18.785 10.1407C18.8037 10.0891 18.8228 10.0316 18.8611 9.91678L19.0714 9.28571C19.251 8.747 19.3408 8.47764 19.4599 8.24893C19.935 7.33649 20.8141 6.70288 21.83 6.54066C22.0846 6.5 22.3686 6.5 22.9364 6.5H30.0636C30.6315 6.5 30.9154 6.5 31.17 6.54066C32.1859 6.70288 33.065 7.33649 33.5401 8.24893C33.6592 8.47764 33.749 8.747 33.9286 9.28571L34.1389 9.91678C34.1772 10.0315 34.1964 10.0891 34.215 10.1407C34.8221 11.819 36.3961 12.9534 38.1802 12.9986C38.2351 13 38.2956 13 38.4167 13" stroke="#1C3664" stroke-width="2.5"/>
</svg>
