<svg width="18" height="18" viewBox="0 0 18 18" fill="none" xmlns="http://www.w3.org/2000/svg">
<path d="M4.73333 8.46691C4.43867 8.46691 4.2 8.22798 4.2 7.93358C4.2 5.87491 5.87493 4.20024 7.93333 4.20024C8.228 4.20024 8.46667 4.43918 8.46667 4.73358C8.46667 5.02798 8.228 5.26691 7.93333 5.26691C6.46293 5.26691 5.26667 6.46318 5.26667 7.93358C5.26667 8.22798 5.028 8.46691 4.73333 8.46691ZM16.8437 16.844C16.7395 16.9482 16.6032 17.0002 16.4667 17.0002C16.3301 17.0002 16.1939 16.9482 16.0896 16.844L12.4387 13.193C11.2253 14.2336 9.65307 14.8669 7.93333 14.8669C4.1104 14.8669 1 11.7568 1 7.93358C1 4.11038 4.1104 1.00024 7.93333 1.00024C11.7563 1.00024 14.8667 4.11038 14.8667 7.93358C14.8667 9.65358 14.2333 11.2258 13.1928 12.4389L16.8437 16.0898C17.052 16.2981 17.052 16.6357 16.8437 16.844ZM13.8 7.93358C13.8 4.69864 11.1683 2.06691 7.93333 2.06691C4.6984 2.06691 2.06667 4.69864 2.06667 7.93358C2.06667 11.1685 4.6984 13.8002 7.93333 13.8002C11.1683 13.8002 13.8 11.1685 13.8 7.93358Z" fill="#FD7E14" stroke="#FD7E14" stroke-width="0.25"/>
</svg>
