<svg width="22" height="22" viewBox="0 0 22 22" fill="none" xmlns="http://www.w3.org/2000/svg">
<path d="M18.9099 14.6652C18.8386 14.5792 18.7685 14.4933 18.6998 14.4104C17.7545 13.267 17.1826 12.5769 17.1826 9.34006C17.1826 7.66427 16.7817 6.28928 15.9915 5.25803C15.4088 4.49619 14.6212 3.91826 13.5831 3.49115C13.5697 3.48372 13.5578 3.47397 13.5478 3.46236C13.1744 2.21197 12.1526 1.37451 11.0002 1.37451C9.84781 1.37451 8.82644 2.21197 8.45304 3.46107C8.44307 3.47226 8.43131 3.4817 8.41824 3.489C5.99566 4.48631 4.81831 6.3997 4.81831 9.33877C4.81831 12.5769 4.24726 13.267 3.30109 14.4091C3.23234 14.492 3.1623 14.5762 3.09097 14.6639C2.90672 14.8861 2.78998 15.1564 2.75458 15.4429C2.71917 15.7294 2.76657 16.02 2.89117 16.2804C3.15628 16.839 3.72132 17.1857 4.36628 17.1857H17.6389C18.2808 17.1857 18.842 16.8394 19.108 16.2834C19.2331 16.0229 19.281 15.7321 19.2459 15.4453C19.2108 15.1585 19.0942 14.8877 18.9099 14.6652Z" fill="#F5F9FF"/>
<path d="M11.0003 20.625C11.6212 20.6245 12.2304 20.456 12.7633 20.1372C13.2962 19.8185 13.7329 19.3615 14.027 18.8147C14.0409 18.7885 14.0477 18.7592 14.0469 18.7295C14.0461 18.6999 14.0376 18.671 14.0223 18.6456C14.007 18.6202 13.9854 18.5992 13.9595 18.5847C13.9337 18.5701 13.9046 18.5625 13.8749 18.5625H8.12658C8.0969 18.5624 8.0677 18.57 8.04182 18.5845C8.01594 18.599 7.99427 18.62 7.97891 18.6454C7.96355 18.6708 7.95502 18.6998 7.95417 18.7294C7.95332 18.7591 7.96017 18.7885 7.97404 18.8147C8.26818 19.3615 8.70479 19.8184 9.23758 20.1371C9.77038 20.4558 10.3795 20.6244 11.0003 20.625Z" fill="#F5F9FF"/>
</svg>
