<svg width="16" height="17" viewBox="0 0 16 17" fill="none" xmlns="http://www.w3.org/2000/svg">
<g clip-path="url(#clip0_322_12362)">
<path d="M15.3905 4.90213L15.3902 4.90164L13.3904 1.56861C13.3903 1.5686 13.3903 1.56858 13.3903 1.56857C13.3844 1.55873 13.376 1.55058 13.366 1.54493L13.6612 1.02337L13.366 1.54493C13.3561 1.53928 13.3448 1.5363 13.3333 1.53628L15.3905 4.90213ZM15.3905 4.90213C15.3967 4.9125 15.4 4.92437 15.4 4.93646L15.4 4.93792C15.4011 5.33708 15.2863 5.72796 15.0695 6.06311C14.8527 6.39826 14.5433 6.66327 14.1788 6.82594C13.8143 6.98862 13.4104 7.04197 13.0161 6.97951C12.6219 6.91705 12.2543 6.74148 11.9579 6.47411L11.5553 6.11089L11.1533 6.47482C10.7762 6.81623 10.2857 7.00529 9.777 7.00529C9.26832 7.00529 8.77779 6.81623 8.40069 6.47482L7.99835 6.11056L7.59569 6.47448C7.21875 6.81516 6.72875 7.00378 6.22067 7.00378C5.71259 7.00378 5.22259 6.81516 4.84565 6.47448L4.44345 6.11096L4.04114 6.47437C3.66316 6.81581 3.17157 7.00425 2.6622 7.00295H2.66067H2.65613C2.10978 7.00139 1.58636 6.78307 1.20084 6.3959L0.775678 6.81926L1.20084 6.3959C0.815157 6.00857 0.599043 5.48394 0.600004 4.93733L0.600004 4.93647C0.600008 4.92437 0.603303 4.9125 0.609538 4.90214L0.609833 4.90164M15.3905 4.90213L0.609833 4.90164M0.609833 4.90164L2.60965 1.56861C2.60967 1.56858 2.60969 1.56855 2.60971 1.56851C2.61563 1.5587 2.62399 1.55057 2.63396 1.54493C2.64394 1.53928 2.65521 1.5363 2.66667 1.53628L0.609833 4.90164ZM2.65534 7.60295H2.66067C3.31917 7.60463 3.95469 7.36102 4.44334 6.91961C4.93057 7.35997 5.56393 7.60378 6.22067 7.60378L2.65534 7.60295ZM2.66678 1.53628H13.3332H2.66678Z" stroke="#596CFF" stroke-width="1.2"/>
<path d="M13.3444 9.53624V9.53629L13.3519 9.53619C13.368 9.53598 13.384 9.53568 13.4 9.53531V15.6029C13.4 15.6206 13.393 15.6376 13.3805 15.6501C13.368 15.6626 13.351 15.6696 13.3333 15.6696H9.93333V12.2696V11.6696H9.33333H6.66667H6.06667V12.2696V15.6696H2.66667C2.64898 15.6696 2.63203 15.6626 2.61953 15.6501C2.60702 15.6376 2.6 15.6206 2.6 15.6029V9.53537C2.61831 9.53576 2.63662 9.53604 2.65494 9.53622L2.65494 9.53624L2.65967 9.53624C3.27314 9.53727 3.87959 9.4154 4.44353 9.17893C4.54655 9.22211 4.65112 9.26158 4.75703 9.29726C5.32739 9.49104 5.9305 9.56986 6.5315 9.52916C7.03767 9.49488 7.53388 9.3764 7.99988 9.17923C8.10267 9.22224 8.20701 9.26157 8.31267 9.29714C8.88338 9.49064 9.48675 9.56924 10.088 9.5284C10.595 9.49396 11.0921 9.37516 11.5588 9.1775C12.1233 9.41436 12.7303 9.53671 13.3444 9.53624Z" stroke="#596CFF" stroke-width="1.2"/>
</g>
<defs>
<clipPath id="clip0_322_12362">
<rect width="16" height="16" fill="white" transform="translate(0 0.269531)"/>
</clipPath>
</defs>
</svg>
