<svg width="15" height="10" viewBox="0 0 15 10" fill="none" xmlns="http://www.w3.org/2000/svg">
<path d="M0.366899 0.842191C0.274743 0.934114 0.201627 1.04332 0.151739 1.16354C0.101851 1.28377 0.0761719 1.41265 0.0761719 1.54282C0.0761719 1.67298 0.101851 1.80187 0.151739 1.92209C0.201627 2.04232 0.274743 2.15152 0.366899 2.24344L6.94565 8.82219C7.01889 8.89558 7.10588 8.95381 7.20165 8.99354C7.29743 9.03326 7.40009 9.05371 7.50377 9.05371C7.60746 9.05371 7.71012 9.03326 7.80589 8.99354C7.90166 8.95381 7.98866 8.89558 8.0619 8.82219L14.6406 2.24344C15.0286 1.85553 15.0286 1.23011 14.6406 0.842191C14.2527 0.454274 13.6273 0.454274 13.2394 0.842191L7.49982 6.57386L1.76023 0.834276C1.38023 0.454276 0.746899 0.454274 0.366899 0.842191Z" fill="#ADADAD"/>
</svg>
