<svg width="31" height="31" viewBox="0 0 31 31" fill="none" xmlns="http://www.w3.org/2000/svg">
    <circle cx="15.5" cy="15.5" r="15.5" fill="#1E6BDD" />
    <path
        d="M17.5553 9.91409C18.1142 9.30856 18.3936 9.0058 18.6906 8.8292C19.407 8.40307 20.2893 8.38982 21.0178 8.79424C21.3197 8.96185 21.6077 9.25609 22.1838 9.84457C22.7598 10.433 23.0479 10.7273 23.2119 11.0357C23.6079 11.7798 23.5949 12.6811 23.1777 13.413C23.0049 13.7164 22.7085 14.0018 22.1157 14.5728L15.063 21.3657C13.9397 22.4477 13.378 22.9887 12.676 23.2628C11.9741 23.537 11.2024 23.5168 9.65902 23.4764L9.44904 23.471C8.97918 23.4587 8.74425 23.4525 8.60769 23.2975C8.47113 23.1425 8.48977 22.9032 8.52706 22.4247L8.54731 22.1648C8.65226 20.8176 8.70473 20.1441 8.96778 19.5387C9.23083 18.9332 9.68458 18.4416 10.5921 17.4584L17.5553 9.91409Z"
        stroke="white" stroke-width="1.5" stroke-linejoin="round" />
    <path d="M16.75 10L22 15.25" stroke="white" stroke-width="1.5" stroke-linejoin="round" />
    <path d="M17.5 23.5H23.5" stroke="white" stroke-width="1.5" stroke-linecap="round" stroke-linejoin="round" />
</svg>