<svg width="20" height="11" viewBox="0 0 20 11" fill="none" xmlns="http://www.w3.org/2000/svg">
<path fill-rule="evenodd" clip-rule="evenodd" d="M19.4375 0.784768C19.7865 0.934337 19.9481 1.3385 19.7986 1.6875L19.1666 1.41668C19.7986 1.6875 19.7986 1.68734 19.7986 1.6875L19.7979 1.68904L19.7969 1.69132L19.794 1.69806L19.7842 1.72013C19.776 1.73859 19.7642 1.76445 19.749 1.79716C19.7185 1.86257 19.6739 1.95545 19.6148 2.07132C19.4967 2.30292 19.3203 2.6273 19.0828 3.00844C18.6926 3.63456 18.1331 4.4212 17.3901 5.20268L18.2778 6.09031C18.5463 6.3588 18.5463 6.7941 18.2778 7.06258C18.0093 7.33107 17.574 7.33107 17.3055 7.06258L16.3883 6.14539C15.7836 6.65202 15.0901 7.12754 14.3038 7.51822L15.1596 8.83339C15.3666 9.15165 15.2765 9.57752 14.9583 9.7846C14.64 9.99168 14.2141 9.90156 14.0071 9.5833L13.0087 8.0489C12.2943 8.2822 11.5208 8.44074 10.6875 8.49758V10.125C10.6875 10.5047 10.3797 10.8125 9.99997 10.8125C9.62028 10.8125 9.31247 10.5047 9.31247 10.125V8.49758C8.50486 8.44249 7.75338 8.29187 7.05738 8.07022L6.07281 9.58336C5.86573 9.90162 5.43986 9.99174 5.12161 9.78466C4.80335 9.57758 4.71323 9.15171 4.92031 8.83346L5.75669 7.54805C4.96434 7.16111 4.2652 6.68767 3.65526 6.18175L2.77436 7.06265C2.50588 7.33113 2.07058 7.33113 1.80209 7.06265C1.53361 6.79416 1.53361 6.35886 1.80209 6.09037L2.64887 5.24359C1.89303 4.45554 1.32402 3.65936 0.927579 3.02512C0.686564 2.63955 0.507586 2.31102 0.387766 2.0764C0.327815 1.959 0.282552 1.86488 0.25163 1.7986C0.236166 1.76545 0.224277 1.73924 0.215921 1.72054L0.206027 1.69818L0.203054 1.69136L0.20206 1.68905L0.201685 1.68818C0.201615 1.68802 0.201392 1.6875 0.833304 1.41668L0.201685 1.68818C0.0521154 1.33919 0.213489 0.934337 0.562485 0.784768C0.911193 0.635322 1.31498 0.796599 1.46485 1.145C1.46479 1.14488 1.4649 1.14512 1.46485 1.145L1.46572 1.14701L1.47129 1.15958C1.47669 1.17167 1.48549 1.1911 1.49771 1.21729C1.52215 1.26968 1.56026 1.34908 1.61232 1.45103C1.71654 1.6551 1.87619 1.9486 2.09354 2.29631C2.52951 2.99378 3.19065 3.89818 4.09268 4.73647C4.88642 5.47413 5.85908 6.15361 7.02238 6.60117C7.89733 6.93779 8.88663 7.14585 9.99997 7.14585C11.1382 7.14585 12.1469 6.92838 13.0364 6.57826C14.1927 6.12314 15.1587 5.43924 15.9461 4.70017C16.8349 3.86598 17.4863 2.97057 17.9158 2.28128C18.1299 1.93763 18.2872 1.64792 18.3899 1.44663C18.4412 1.34605 18.4787 1.26778 18.5028 1.21616C18.5148 1.19035 18.5235 1.17122 18.5288 1.15932L18.5342 1.14696L18.5347 1.14586C18.5347 1.14595 18.5348 1.14577 18.5347 1.14586M19.4375 0.784768C19.0886 0.635237 18.6844 0.797051 18.5347 1.14586L19.4375 0.784768ZM1.46485 1.145C1.46479 1.14488 1.4649 1.14512 1.46485 1.145V1.145Z" fill="#6A707C"/>
</svg>
