<svg width="25" height="22" viewBox="0 0 25 22" fill="none" xmlns="http://www.w3.org/2000/svg">
<path d="M4.18554 12.8236C5.03225 9.09555 8.57181 6.44663 12.5533 6.44663C16.5336 6.44663 20.0732 9.09555 20.9212 12.8236C20.9547 12.9716 21.0511 13.1012 21.1889 13.184C21.3267 13.2669 21.4948 13.2961 21.6561 13.2653C21.8175 13.2345 21.9589 13.1462 22.0492 13.0198C22.1395 12.8934 22.1714 12.7393 22.1378 12.5914C21.1732 8.35108 17.1383 5.30829 12.5533 5.30829C7.96843 5.30829 3.93351 8.35108 2.96885 12.5914C2.93527 12.7393 2.96715 12.8934 3.05749 13.0198C3.14783 13.1462 3.28922 13.2345 3.45056 13.2653C3.6119 13.2961 3.77998 13.2669 3.91781 13.184C4.05565 13.1012 4.15195 12.9716 4.18554 12.8236ZM12.5409 8.72331C13.6934 8.72331 14.7986 9.14308 15.6135 9.89026C16.4284 10.6374 16.8862 11.6508 16.8862 12.7075C16.8862 13.7642 16.4284 14.7776 15.6135 15.5248C14.7986 16.2719 13.6934 16.6917 12.5409 16.6917C11.3885 16.6917 10.2832 16.2719 9.46834 15.5248C8.65344 14.7776 8.19563 13.7642 8.19563 12.7075C8.19563 11.6508 8.65344 10.6374 9.46834 9.89026C10.2832 9.14308 11.3885 8.72331 12.5409 8.72331Z" fill="#6A707C"/>
</svg>
