<svg width="123" height="122" viewBox="0 0 123 122" fill="none" xmlns="http://www.w3.org/2000/svg">
<path d="M122.5 60.9993C122.5 66.1253 119.282 70.388 116.169 74.5098C114.302 76.9845 112.536 79.3232 111.54 81.725C110.483 84.2758 110.023 87.4162 109.581 90.4528C108.846 95.4799 108.088 100.68 104.633 104.133C101.18 107.586 95.9813 108.344 90.9542 109.079C87.9175 109.523 84.7772 109.982 82.2264 111.039C79.8229 112.035 77.486 113.8 75.0113 115.669C70.8895 118.78 66.6267 121.999 61.5009 121.999C56.3734 121.999 52.1122 118.781 47.9904 115.669C45.5157 113.8 43.1771 112.035 40.7753 111.039C38.2245 109.981 35.0841 109.523 32.0475 109.079C27.0187 108.344 21.8199 107.586 18.3671 104.133C14.9142 100.68 14.1545 95.4799 13.4209 90.4528C12.9772 87.416 12.5188 84.2758 11.4612 81.725C10.4652 79.3232 8.69981 76.9845 6.83088 74.5098C3.71976 70.388 0.5 66.1253 0.5 60.9993C0.5 55.8734 3.71976 51.6107 6.83088 47.4889C8.69994 45.0141 10.4652 42.6755 11.4612 40.2737C12.5188 37.7229 12.9772 34.5826 13.4209 31.5459C14.1545 26.5188 14.9141 21.3183 18.3671 17.8655C21.82 14.4126 27.0188 13.6547 32.0475 12.9193C35.0842 12.4756 38.2245 12.0173 40.7753 10.9597C43.1771 9.96362 45.5157 8.19824 47.9904 6.32932C52.1122 3.21819 56.3733 0 61.5009 0C66.6268 0 70.8896 3.21806 75.0113 6.32932C77.486 8.19824 79.8229 9.96362 82.2264 10.9597C84.7772 12.0173 87.9175 12.4756 90.9542 12.9193C95.9813 13.6545 101.18 14.4125 104.633 17.8655C108.088 21.3183 108.846 26.5188 109.581 31.5459C110.023 34.5826 110.483 37.7229 111.54 40.2737C112.537 42.6755 114.302 45.0141 116.169 47.4889C119.282 51.6107 122.5 55.8734 122.5 60.9993Z" fill="#81D14E"/>
<path d="M91.8321 51.8407L57.7445 85.9282C56.3276 87.3452 54.0301 87.3452 52.6131 85.9282L31.1663 64.4814C29.7493 63.0644 29.7493 60.7669 31.1663 59.35L36.3871 54.1291C37.8041 52.7121 40.1014 52.7121 41.5186 54.1291L55.179 67.7895L81.48 41.4885C82.897 40.0715 85.1943 40.0715 86.6114 41.4885L91.8322 46.7094C93.2491 48.1264 93.2491 50.4237 91.8321 51.8407Z" fill="white"/>
</svg>
