<svg width="53" height="52" viewBox="0 0 53 52" fill="none" xmlns="http://www.w3.org/2000/svg">
<path d="M26.5 43.4366C22.8416 43.4339 19.2978 42.1601 16.4749 39.8331C13.652 37.5061 11.7254 34.2705 11.0248 30.6798C10.3241 27.0891 10.8929 23.3666 12.6339 20.149C14.3748 16.9314 17.1797 14.4188 20.5687 13.0409C20.7185 12.9728 20.8805 12.9358 21.045 12.932C21.2095 12.9282 21.3731 12.9577 21.5258 13.0188C21.6786 13.0799 21.8174 13.1714 21.9339 13.2876C22.0504 13.4038 22.1421 13.5423 22.2036 13.695C22.2651 13.8476 22.295 14.0111 22.2916 14.1756C22.2882 14.3401 22.2516 14.5022 22.1838 14.6521C22.1161 14.8021 22.0187 14.9367 21.8975 15.048C21.7763 15.1593 21.6339 15.2449 21.4787 15.2997C19.8064 15.9955 18.2933 17.0246 17.0316 18.3243C15.7699 19.6239 14.7861 21.1669 14.1401 22.8591C13.4941 24.5513 13.1994 26.3574 13.2741 28.1672C13.3488 29.977 13.7912 31.7526 14.5744 33.3858C15.3576 35.0191 16.4652 36.4757 17.8297 37.667C19.1941 38.8583 20.7869 39.7593 22.5109 40.315C24.2349 40.8707 26.0539 41.0696 27.8573 40.8994C29.6606 40.7293 31.4104 40.1937 33 39.3253C33.1394 39.2192 33.3001 39.1444 33.471 39.106C33.642 39.0676 33.8192 39.0665 33.9906 39.1028C34.162 39.1391 34.3236 39.2119 34.4643 39.3163C34.605 39.4207 34.7216 39.5542 34.806 39.7077C34.8905 39.8613 34.9408 40.0312 34.9536 40.2059C34.9664 40.3807 34.9414 40.5561 34.8803 40.7203C34.8191 40.8846 34.7233 41.0336 34.5993 41.1575C34.4754 41.2813 34.3261 41.3769 34.1618 41.4378C31.8196 42.7451 29.1824 43.4331 26.5 43.4366ZM37.2169 38.7322C36.9166 38.7281 36.628 38.6156 36.4043 38.4153C36.2864 38.307 36.191 38.1766 36.1234 38.0314C36.0559 37.8862 36.0177 37.7292 36.0109 37.5692C36.0041 37.4092 36.0289 37.2495 36.0839 37.0991C36.1388 36.9488 36.2229 36.8107 36.3312 36.6928C37.7902 35.1073 38.8434 33.1921 39.4009 31.1108C39.9584 29.0296 40.0035 26.8443 39.5323 24.7418C39.0612 22.6394 38.0879 20.6823 36.6956 19.038C35.3033 17.3936 33.5335 16.111 31.5375 15.2997C31.3823 15.2449 31.2399 15.1593 31.1187 15.048C30.9975 14.9367 30.9001 14.8021 30.8324 14.6521C30.7646 14.5022 30.728 14.3401 30.7246 14.1756C30.7212 14.0111 30.7511 13.8476 30.8126 13.695C30.8741 13.5423 30.9658 13.4038 31.0823 13.2876C31.1988 13.1714 31.3376 13.0799 31.4904 13.0188C31.6431 12.9577 31.8067 12.9282 31.9712 12.932C32.1357 12.9358 32.2977 12.9728 32.4475 13.0409C34.8108 13.9971 36.9071 15.5119 38.5568 17.4557C40.2064 19.3995 41.3603 21.7142 41.9194 24.2016C42.4785 26.689 42.4263 29.2748 41.7672 31.7376C41.1081 34.2003 39.8618 36.4666 38.135 38.3422C38.0184 38.4687 37.8763 38.5689 37.7179 38.6361C37.5596 38.7034 37.3888 38.7361 37.2169 38.7322Z" fill="#1C3664"/>
<path d="M26.5 26.1625C26.1768 26.1625 25.8668 26.0341 25.6382 25.8055C25.4097 25.577 25.2812 25.267 25.2812 24.9437V9.75C25.2812 9.42677 25.4097 9.11677 25.6382 8.88821C25.8668 8.65965 26.1768 8.53125 26.5 8.53125C26.8232 8.53125 27.1332 8.65965 27.3618 8.88821C27.5903 9.11677 27.7188 9.42677 27.7188 9.75V24.9437C27.7188 25.1038 27.6872 25.2623 27.626 25.4101C27.5647 25.558 27.475 25.6924 27.3618 25.8055C27.2486 25.9187 27.1143 26.0085 26.9664 26.0697C26.8185 26.131 26.66 26.1625 26.5 26.1625Z" fill="#F93C65"/>
</svg>
