<svg width="24" height="25" viewBox="0 0 24 25" fill="none" xmlns="http://www.w3.org/2000/svg">
<path fill-rule="evenodd" clip-rule="evenodd" d="M7.26279 3.75871C7.38317 2.62953 8.33887 1.75 9.5 1.75H14.5C15.6611 1.75 16.6168 2.62953 16.7372 3.75871C17.5004 3.77425 18.1602 3.81372 18.7236 3.91721C19.4816 4.05644 20.1267 4.32168 20.6517 4.84661C21.2536 5.44853 21.5125 6.2064 21.6335 7.10651C21.75 7.97348 21.75 9.0758 21.75 10.4434V16.5531C21.75 17.9207 21.75 19.023 21.6335 19.89C21.5125 20.7901 21.2536 21.548 20.6517 22.1499C20.0497 22.7518 19.2919 23.0107 18.3918 23.1317C17.5248 23.2483 16.4225 23.2483 15.0549 23.2483H8.94513C7.57754 23.2483 6.47522 23.2483 5.60825 23.1317C4.70814 23.0107 3.95027 22.7518 3.34835 22.1499C2.74643 21.548 2.48754 20.7901 2.36652 19.89C2.24996 19.023 2.24998 17.9207 2.25 16.5531V10.4434C2.24998 9.0758 2.24996 7.97348 2.36652 7.10651C2.48754 6.2064 2.74643 5.44853 3.34835 4.84661C3.87328 4.32168 4.51835 4.05644 5.27635 3.91721C5.83977 3.81372 6.49963 3.77425 7.26279 3.75871ZM7.26476 5.25913C6.54668 5.27447 5.99332 5.31061 5.54735 5.39253C4.98054 5.49664 4.65246 5.66382 4.40901 5.90727C4.13225 6.18403 3.9518 6.57261 3.85315 7.30638C3.75159 8.06173 3.75 9.06285 3.75 10.4983V16.4983C3.75 17.9337 3.75159 18.9348 3.85315 19.6901C3.9518 20.4239 4.13225 20.8125 4.40901 21.0893C4.68577 21.366 5.07435 21.5465 5.80812 21.6451C6.56347 21.7467 7.56458 21.7483 9 21.7483H15C16.4354 21.7483 17.4365 21.7467 18.1919 21.6451C18.9257 21.5465 19.3142 21.366 19.591 21.0893C19.8678 20.8125 20.0482 20.4239 20.1469 19.6901C20.2484 18.9348 20.25 17.9337 20.25 16.4983V10.4983C20.25 9.06285 20.2484 8.06173 20.1469 7.30638C20.0482 6.57261 19.8678 6.18403 19.591 5.90727C19.3475 5.66382 19.0195 5.49664 18.4527 5.39253C18.0067 5.31061 17.4533 5.27447 16.7352 5.25913C16.6067 6.37972 15.655 7.25 14.5 7.25H9.5C8.345 7.25 7.39326 6.37972 7.26476 5.25913ZM9.5 3.25C9.08579 3.25 8.75 3.58579 8.75 4V5C8.75 5.41421 9.08579 5.75 9.5 5.75H14.5C14.9142 5.75 15.25 5.41421 15.25 5V4C15.25 3.58579 14.9142 3.25 14.5 3.25H9.5ZM15.5483 10.9883C15.8309 11.2911 15.8146 11.7657 15.5117 12.0483L11.226 16.0483C10.9379 16.3172 10.4907 16.3172 10.2025 16.0483L8.48826 14.4483C8.18545 14.1657 8.16908 13.6911 8.45171 13.3883C8.73433 13.0854 9.20893 13.0691 9.51174 13.3517L10.7143 14.4741L14.4883 10.9517C14.7911 10.6691 15.2657 10.6854 15.5483 10.9883Z" fill="#ADADAD"/>
</svg>
