<svg width="24" height="25" viewBox="0 0 24 25" fill="none" xmlns="http://www.w3.org/2000/svg">
<path fill-rule="evenodd" clip-rule="evenodd" d="M12 1.75C9.37666 1.75 7.25001 3.87665 7.25001 6.5C7.25001 9.12335 9.37666 11.25 12 11.25C14.6234 11.25 16.75 9.12335 16.75 6.5C16.75 3.87665 14.6234 1.75 12 1.75ZM8.75001 6.5C8.75001 4.70507 10.2051 3.25 12 3.25C13.7949 3.25 15.25 4.70507 15.25 6.5C15.25 8.29493 13.7949 9.75 12 9.75C10.2051 9.75 8.75001 8.29493 8.75001 6.5Z" fill="#ADADAD"/>
<path fill-rule="evenodd" clip-rule="evenodd" d="M12 12.75C9.68646 12.75 7.55494 13.2759 5.97546 14.1643C4.4195 15.0396 3.25001 16.3661 3.25001 18L3.24995 18.102C3.24882 19.2638 3.2474 20.722 4.52642 21.7635C5.15589 22.2761 6.03649 22.6406 7.22622 22.8815C8.41927 23.1229 9.97424 23.25 12 23.25C14.0258 23.25 15.5808 23.1229 16.7738 22.8815C17.9635 22.6406 18.8441 22.2761 19.4736 21.7635C20.7526 20.722 20.7512 19.2638 20.7501 18.102L20.75 18C20.75 16.3661 19.5805 15.0396 18.0246 14.1643C16.4451 13.2759 14.3136 12.75 12 12.75ZM4.75001 18C4.75001 17.1487 5.37139 16.2251 6.71085 15.4717C8.02681 14.7315 9.89529 14.25 12 14.25C14.1047 14.25 15.9732 14.7315 17.2892 15.4717C18.6286 16.2251 19.25 17.1487 19.25 18C19.25 19.3078 19.2097 20.044 18.5264 20.6004C18.1559 20.9022 17.5365 21.1967 16.4762 21.4113C15.4193 21.6252 13.9742 21.75 12 21.75C10.0258 21.75 8.58075 21.6252 7.5238 21.4113C6.46354 21.1967 5.84413 20.9022 5.4736 20.6004C4.79033 20.044 4.75001 19.3078 4.75001 18Z" fill="#ADADAD"/>
</svg>
