<svg width="24" height="25" viewBox="0 0 24 25" fill="none" xmlns="http://www.w3.org/2000/svg">
<path d="M9.44657 15.8975C9.1138 15.6508 8.64409 15.7207 8.39743 16.0534C8.15077 16.3862 8.22058 16.8559 8.55334 17.1026C9.52575 17.8233 10.715 18.25 12 18.25C13.2849 18.25 14.4742 17.8233 15.4466 17.1026C15.7793 16.8559 15.8491 16.3862 15.6025 16.0534C15.3558 15.7207 14.8861 15.6508 14.5533 15.8975C13.825 16.4374 12.9459 16.75 12 16.75C11.0541 16.75 10.1749 16.4374 9.44657 15.8975Z" fill="#1E6BDD"/>
<path fill-rule="evenodd" clip-rule="evenodd" d="M11.9999 1.75024C11.2748 1.75024 10.6133 1.94936 9.88916 2.28735C9.18819 2.61453 8.3776 3.0974 7.36171 3.70257L5.9061 4.56967C4.78699 5.23631 3.89523 5.76751 3.22003 6.27549C2.52301 6.79987 1.99987 7.33985 1.65895 8.05096C1.31786 8.76243 1.22542 9.50704 1.25507 10.3761C1.28377 11.2173 1.43093 12.2399 1.61544 13.5221L1.9078 15.5539C2.14518 17.2038 2.33356 18.5131 2.61499 19.5324C2.90511 20.5832 3.31673 21.4172 4.05953 22.0568C4.80171 22.6958 5.68972 22.9817 6.77622 23.1179C7.83142 23.2503 9.16268 23.2503 10.8422 23.2502H13.1575C14.837 23.2503 16.1683 23.2503 17.2235 23.1179C18.31 22.9817 19.198 22.6958 19.9402 22.0568C20.683 21.4172 21.0947 20.5832 21.3848 19.5324C21.6662 18.5131 21.8546 17.2038 22.092 15.554L22.3843 13.5221C22.5688 12.2399 22.716 11.2173 22.7447 10.3761C22.7743 9.50704 22.6819 8.76243 22.3408 8.05096C21.9999 7.33985 21.4767 6.79987 20.7797 6.27549C20.1045 5.76751 19.2128 5.23631 18.0937 4.56967L16.6381 3.70257C15.6222 3.0974 14.8116 2.61453 14.1106 2.28735C13.3865 1.94936 12.7249 1.75024 11.9999 1.75024ZM8.09546 5.01146C9.15296 4.38151 9.89911 3.93805 10.5236 3.64658C11.1327 3.36228 11.5706 3.25024 11.9999 3.25024C12.4291 3.25024 12.8671 3.36228 13.4762 3.64658C14.1007 3.93805 14.8468 4.3815 15.9043 5.01145L17.2891 5.83639C18.4535 6.52997 19.2751 7.02058 19.8779 7.47415C20.4664 7.91686 20.7887 8.28319 20.9882 8.69941C21.1876 9.11529 21.2705 9.59361 21.2456 10.3249C21.22 11.0748 21.0855 12.0166 20.8935 13.3513L20.6147 15.2887C20.3682 17.0018 20.192 18.2165 19.9389 19.1332C19.6915 20.0291 19.3937 20.5479 18.9615 20.9201C18.5286 21.2928 17.9674 21.5129 17.0369 21.6296C16.0858 21.7489 14.8486 21.7502 13.106 21.7502H10.8938C9.15112 21.7502 7.91393 21.7489 6.96287 21.6296C6.03233 21.5129 5.47117 21.2928 5.03829 20.9201C4.60602 20.5479 4.30826 20.0291 4.0609 19.1332C3.80778 18.2165 3.63158 17.0018 3.38507 15.2886L3.10631 13.3513C2.91425 12.0165 2.77979 11.0748 2.7542 10.3249C2.72925 9.59361 2.81217 9.11529 3.01154 8.69941C3.21109 8.28319 3.53335 7.91686 4.12181 7.47415C4.72469 7.02058 5.54631 6.52997 6.71062 5.83639L8.09546 5.01146Z" fill="#1E6BDD"/>
</svg>
