<svg width="735" height="594" viewBox="0 0 735 594" fill="none" xmlns="http://www.w3.org/2000/svg">
<g id="No Message">
<path id="Fill 1" fill-rule="evenodd" clip-rule="evenodd" d="M639.357 534.736C639.357 558.108 547.496 577.054 434.182 577.054C320.866 577.054 229.007 558.108 229.007 534.736C229.007 511.364 320.866 492.419 434.182 492.419C547.496 492.419 639.357 511.364 639.357 534.736Z" fill="#F2F3FB"/>
<path id="Fill 3" fill-rule="evenodd" clip-rule="evenodd" d="M584.06 318.02H313.642V239C313.642 204.738 341.324 176.962 375.475 176.962H528.793C562.944 176.962 590.628 204.738 590.628 239V311.432C590.628 315.07 587.688 318.02 584.06 318.02Z" fill="#BEC0D5"/>
<path id="Fill 5" fill-rule="evenodd" clip-rule="evenodd" d="M582.934 305.196H305.948V238.24C305.948 204.396 333.629 176.962 367.781 176.962H521.099C555.25 176.962 582.934 204.396 582.934 238.24V305.196Z" fill="#D8DBE8"/>
<path id="Fill 7" fill-rule="evenodd" clip-rule="evenodd" d="M367.5 184.658C337.756 184.658 313.642 208.509 313.642 237.933V305.198H421.359V237.933C421.359 208.509 397.246 184.658 367.5 184.658Z" fill="#FEFEFE"/>
<path id="Fill 9" fill-rule="evenodd" clip-rule="evenodd" d="M305.948 235.951V238.516C305.948 237.657 305.984 236.805 306.014 235.951H305.948Z" fill="#E7EAF0"/>
<path id="Fill 11" fill-rule="evenodd" clip-rule="evenodd" d="M575.309 235.951H575.239C575.27 236.805 575.309 237.657 575.309 238.516V235.951Z" fill="#E7EAF0"/>
<path id="Fill 13" fill-rule="evenodd" clip-rule="evenodd" d="M519.371 176.962H367.985C367.821 176.962 367.662 176.972 367.5 176.974C399.516 177.236 425.392 203.32 425.392 235.472V235.95H580.369C579.209 203.177 552.352 176.962 519.371 176.962Z" fill="#E7EAF0"/>
<path id="Fill 15" fill-rule="evenodd" clip-rule="evenodd" d="M580.369 315.456H275.609C272.532 315.456 270.042 313.159 270.042 310.326C270.042 307.492 272.532 305.197 275.609 305.197H580.369V315.456Z" fill="#D8DBE8"/>
<mask id="mask0_272_4956" style="mask-type:luminance" maskUnits="userSpaceOnUse" x="0" y="0" width="735" height="593">
<path id="Clip 18" fill-rule="evenodd" clip-rule="evenodd" d="M0.75 592.442H734.25V0H0.75V592.442Z" fill="white"/>
</mask>
<g mask="url(#mask0_272_4956)">
<path id="Fill 17" fill-rule="evenodd" clip-rule="evenodd" d="M426.488 536.02H449.57V315.457H426.488V536.02Z" fill="#F0F1F5"/>
<path id="Fill 19" fill-rule="evenodd" clip-rule="evenodd" d="M434.182 536.02H449.57V315.457H434.182V536.02Z" fill="#BEC0D5"/>
<path id="Fill 20" fill-rule="evenodd" clip-rule="evenodd" d="M465.108 330.845H410.948C405.365 330.845 400.841 326.633 400.841 321.433V315.457H475.217V321.433C475.217 326.633 470.69 330.845 465.108 330.845Z" fill="#BEC0D5"/>
<path id="Fill 21" fill-rule="evenodd" clip-rule="evenodd" d="M400.841 320.586H475.217V315.457H400.841V320.586Z" fill="#F0F1F5"/>
<path id="Fill 22" fill-rule="evenodd" clip-rule="evenodd" d="M438.029 520.632C417.491 520.632 400.841 529.185 400.841 539.735C400.841 550.285 417.491 551.408 438.029 551.408C458.567 551.408 475.217 550.285 475.217 539.735C475.217 529.185 458.567 520.632 438.029 520.632Z" fill="#BEC0D5"/>
<path id="Fill 23" fill-rule="evenodd" clip-rule="evenodd" d="M427.859 544.887C435.355 536.22 434.132 526.157 434.074 520.632C413.398 520.632 400.841 528.767 400.841 538.888C400.841 544.373 405.764 547.202 413.567 548.643C413.567 548.643 423.305 550.153 427.859 544.887Z" fill="#F0F1F5"/>
<path id="Fill 24" fill-rule="evenodd" clip-rule="evenodd" d="M503.209 270.479C501.846 278.148 494.522 283.26 486.853 281.895C479.187 280.533 474.073 273.211 475.437 265.542C476.8 257.874 484.122 252.762 491.792 254.124C499.461 255.489 504.571 262.811 503.209 270.479Z" fill="#BEC0D5"/>
<path id="Fill 25" fill-rule="evenodd" clip-rule="evenodd" d="M500.442 268.526C498.742 274.667 492.383 278.265 486.244 276.565C480.102 274.864 476.502 268.507 478.203 262.366C479.903 256.225 486.262 252.625 492.404 254.326C498.543 256.028 502.144 262.384 500.442 268.526Z" fill="#F07185"/>
<path id="Fill 26" fill-rule="evenodd" clip-rule="evenodd" d="M543.91 196.124L511.757 187.406C509.002 186.657 506.12 188.255 505.355 190.954L500.94 206.558L498.869 213.883L482.911 270.285L488.701 271.856L504.658 215.452L536.034 223.959C543.854 226.08 552.021 221.552 554.188 213.897C556.355 206.241 551.729 198.244 543.91 196.124Z" fill="url(#paint0_linear_272_4956)"/>
<path id="Stroke 27" d="M193.102 60.5534C190.525 59.9506 187.957 59.4275 185.407 58.9863" stroke="#9D9D9D" stroke-width="0.854895"/>
<path id="Stroke 28" d="M167.798 59.1084C85.482 56.0578 21.2652 110.728 21.2673 163.988C21.2673 217.58 67.6123 281.744 140.669 267.198C213.726 252.651 219.38 205.598 286.782 205.598C328.065 205.598 379.073 232.382 403.405 246.71" stroke="#D7DAE9" stroke-width="0.854895" stroke-dasharray="6.91 6.91"/>
<path id="Stroke 29" d="M411.1 251.338C416.016 254.518 418.794 256.467 418.794 256.467" stroke="#9D9D9D" stroke-width="0.854895"/>
<path id="Stroke 30" d="M736.815 163.951C736.815 163.951 732.574 164.773 729.743 162.979C724.749 159.812 726.61 155.628 722.814 153.726C718.098 151.36 715.651 156.231 711.131 153.964C705.819 151.299 709.321 146.958 704.307 144.442C699.058 141.81 695.202 146.03 690.254 143.546C687.677 142.254 687.347 140.992 686.249 138.6C685.063 136.021 685.293 133.778 682.055 132.165C677.795 130.044 674.631 134.539 669.382 131.907C664.368 129.391 667.868 125.049 662.556 122.385C658.036 120.118 655.591 124.989 650.873 122.624C647.079 120.72 649.073 116.336 643.944 113.37C639.755 110.949 636.4 113.151 634.236 112.832C630.449 112.277 629.098 107.716 629.098 107.716" stroke="#F06D8D" stroke-width="0.854895"/>
<path id="Stroke 31" d="M175.148 425.738C175.148 425.738 175.449 421.341 178.067 419.072C182.688 415.071 186.501 418.086 189.492 414.901C193.212 410.943 188.846 407.155 192.409 403.362C196.596 398.905 200.131 403.577 204.083 399.368C208.22 394.966 204.911 389.98 208.814 385.828C210.843 383.666 212.236 383.7 215.001 383.3C217.985 382.87 220.237 383.735 222.78 381.016C226.121 377.435 222.34 373.049 226.476 368.645C230.432 364.437 233.964 369.109 238.151 364.653C241.714 360.858 237.35 357.072 241.068 353.113C244.06 349.928 248.045 353.132 252.493 348.941C256.128 345.518 254.763 341.596 255.676 339.561C257.275 336.001 262.348 335.974 262.348 335.974" stroke="#F06D8D" stroke-width="0.854895"/>
<path id="Fill 32" fill-rule="evenodd" clip-rule="evenodd" d="M193.102 79.5057C187.234 78.1405 181.56 71.8117 180.085 70.7241L167.455 70.1849L178.306 63.2435C178.5 58.1573 180.841 52.9919 185.408 48.7295C185.443 53.9099 186.524 59.2379 187.782 64.5873C189.039 69.9367 190.848 74.9373 193.102 79.5057Z" fill="#282526"/>
<path id="Fill 34" fill-rule="evenodd" clip-rule="evenodd" d="M181.748 69.2473L181.263 69.2183C180.87 68.4014 180.55 67.5472 180.278 66.6826C180.637 67.5721 181.145 68.4304 181.748 69.2473Z" fill="#282526"/>
<path id="Fill 35" fill-rule="evenodd" clip-rule="evenodd" d="M202.078 79.4975C199.513 79.5052 195.666 79.5052 193.102 79.4975C190.838 75.0013 188.586 69.2937 187.324 64.0263C186.064 58.7569 185.441 53.8299 185.407 48.729C187.354 46.9444 190.552 45.0049 193.102 43.5996C192.869 49.6423 194.158 56.5456 195.666 62.8348C197.172 69.1239 199.157 74.3082 202.078 79.4975Z" fill="#F5D30D"/>
<path id="Fill 36" fill-rule="evenodd" clip-rule="evenodd" d="M211.055 78.2241C208.104 78.8429 204.839 79.4379 202.053 79.5064C198.904 74.3916 196.784 68.6641 195.16 62.4653C193.534 56.2664 192.851 49.5567 193.102 43.6008C195.584 42.3673 198.345 41.8585 201.242 41.0361C200.838 47.3284 201.456 53.9032 203.183 60.4841C204.908 67.0651 208.49 73.0947 211.055 78.2241Z" fill="#282526"/>
<path id="Fill 37" fill-rule="evenodd" clip-rule="evenodd" d="M220.03 74.3753C220.03 74.3753 218.748 75.6577 216.183 76.94C213.619 78.2224 212.336 78.2224 211.054 78.2224C207.891 72.9682 204.26 65.7209 202.683 59.2472C201.102 52.7735 200.535 46.306 200.904 40.1162C201.337 39.9794 201.774 39.8629 202.23 39.7424C204.907 39.0335 209.781 38.6005 212.336 38.4697C211.95 44.8814 212.108 50.2267 213.619 56.4225C215.13 62.6204 217.067 69.2805 220.03 74.3753Z" fill="#F5D30D"/>
<path id="Fill 38" fill-rule="evenodd" clip-rule="evenodd" d="M226.442 69.246C224.448 70.9678 222.603 73.0927 220.031 74.3753C217.128 69.2076 214.384 63.4182 212.903 57.1315C211.42 50.8469 210.855 44.5872 211.116 38.5492C213.944 38.3524 216.661 38.5264 219.174 39.0133C219.17 44.208 219.775 49.5374 221.04 54.8999C222.304 60.2604 224.135 64.6832 226.442 69.246Z" fill="#282526"/>
<path id="Fill 39" fill-rule="evenodd" clip-rule="evenodd" d="M226.442 69.246C224.155 64.6855 221.854 59.6986 220.6 54.3433C219.345 48.9859 218.745 43.6615 218.748 38.4697C226.426 39.9167 232.278 44.324 233.773 50.704C235.266 57.0841 232.549 63.992 226.442 69.246Z" fill="#282526"/>
<path id="Fill 40" fill-rule="evenodd" clip-rule="evenodd" d="M215.412 46.0403C208.753 47.3503 201.404 38.1339 198.998 25.4553C196.59 12.7746 200.038 1.43434 206.695 0.124363C213.354 -1.18764 220.703 8.03078 223.111 20.7094C225.517 33.388 222.071 44.7303 215.412 46.0403Z" fill="#98B4DD"/>
<path id="Fill 41" fill-rule="evenodd" clip-rule="evenodd" d="M221.759 46.2872C216.918 51.4644 205.329 48.1433 195.876 38.8693C186.423 29.5953 182.684 17.881 187.526 12.7017C192.369 7.52657 203.956 10.8456 213.411 20.1196C222.863 29.3935 226.601 41.11 221.759 46.2872Z" fill="#B9C7E5"/>
<path id="Fill 42" fill-rule="evenodd" clip-rule="evenodd" d="M235.386 43.5986C233.096 40.5908 229.684 38.3083 225.542 37.3711C224.981 37.2423 224.435 37.1393 223.878 37.0739C227.91 33.9294 233.439 32.5503 238.935 33.7947C243.553 34.8408 247.251 37.5355 249.524 41.0287C244.405 39.8696 239.286 40.9534 235.386 43.5986Z" fill="#1A1E1D"/>
<path id="Fill 43" fill-rule="evenodd" clip-rule="evenodd" d="M251.606 51.9128C249.547 59.9846 241.474 65.1037 233.073 63.958C232.527 63.8915 231.991 63.7866 231.439 63.6575L231.399 63.6474C222.49 61.5296 217.043 52.8769 219.232 44.2968C220.102 40.8881 222.044 38.022 224.615 35.9062C225.161 35.9728 225.697 36.0777 226.247 36.2068C230.307 37.1628 233.65 39.4863 235.898 42.5481C239.718 39.8534 244.736 38.7502 249.713 39.922L249.753 39.9321C251.896 43.4053 252.692 47.6631 251.606 51.9128Z" fill="#F5D30D"/>
<path id="Fill 44" fill-rule="evenodd" clip-rule="evenodd" d="M238.857 34.3714C239.535 30.3924 245.142 25.9743 249.386 25.6465L249.525 27.2381C245.999 27.5102 241.077 31.518 240.549 34.6229L238.857 34.3714Z" fill="#1A1E1D"/>
<path id="Fill 45" fill-rule="evenodd" clip-rule="evenodd" d="M251.964 28.9991C251.527 30.3463 250.084 31.087 248.737 30.6506C247.389 30.2165 246.649 28.7703 247.085 27.4232C247.519 26.0761 248.965 25.3353 250.312 25.7717C251.66 26.2058 252.4 27.652 251.964 28.9991Z" fill="#1A1E1D"/>
<path id="Fill 46" fill-rule="evenodd" clip-rule="evenodd" d="M236.701 34.6241C238.557 31.432 235.717 25.3751 232.633 23.083L231.572 24.1586C234.137 26.0648 236.701 30.7771 235.246 33.9857L236.701 34.6241Z" fill="#1A1E1D"/>
<path id="Fill 47" fill-rule="evenodd" clip-rule="evenodd" d="M229.132 22.2933C228.696 23.6404 229.437 25.0866 230.781 25.5207C232.131 25.9572 233.577 25.2164 234.011 23.8693C234.448 22.5222 233.707 21.076 232.36 20.6419C231.013 20.2054 229.566 20.9462 229.132 22.2933Z" fill="#1A1E1D"/>
<path id="Fill 48" fill-rule="evenodd" clip-rule="evenodd" d="M231.424 47.3859C230.75 50.1361 227.972 51.8198 225.222 51.1467C222.472 50.4717 220.788 47.6972 221.461 44.9451C222.138 42.1949 224.912 40.5112 227.663 41.1843C230.413 41.8593 232.097 44.6356 231.424 47.3859Z" fill="#1A1E1D"/>
<path id="Fill 49" fill-rule="evenodd" clip-rule="evenodd" d="M233.987 47.3867C233.314 50.136 230.538 51.8198 227.787 51.1467C225.035 50.4736 223.351 47.698 224.027 44.9465C224.7 42.195 227.475 40.5112 230.227 41.1843C232.979 41.8596 234.663 44.6352 233.987 47.3867Z" fill="#FEFEFE"/>
<path id="Fill 50" fill-rule="evenodd" clip-rule="evenodd" d="M226.517 45.5537C226.179 46.9297 227.02 48.3189 228.399 48.6544C229.772 48.9925 231.159 48.1485 231.497 46.7751C231.835 45.399 230.994 44.0098 229.618 43.6743C228.241 43.3362 226.855 44.1776 226.517 45.5537Z" fill="#1A1E1D"/>
<path id="Fill 51" fill-rule="evenodd" clip-rule="evenodd" d="M229.043 44.5565C228.879 45.2284 229.292 45.9081 229.964 46.0722C230.636 46.2389 231.315 45.826 231.48 45.1515C231.646 44.4795 231.233 43.8024 230.561 43.6357C229.887 43.4716 229.207 43.882 229.043 44.5565Z" fill="#FEFEFE"/>
<path id="Fill 52" fill-rule="evenodd" clip-rule="evenodd" d="M234.285 47.5091C233.611 50.2596 235.293 53.0363 238.046 53.7094C240.795 54.3845 243.572 52.7006 244.247 49.9501C244.92 47.1976 243.238 44.4229 240.485 43.7478C237.736 43.0746 234.958 44.7585 234.285 47.5091Z" fill="#1A1E1D"/>
<path id="Fill 53" fill-rule="evenodd" clip-rule="evenodd" d="M236.813 49.0946C236.306 51.1581 237.571 53.2396 239.634 53.746C241.696 54.2508 243.777 52.9881 244.284 50.9246C244.79 48.8611 243.526 46.7796 241.464 46.2748C239.401 45.7684 237.319 47.0312 236.813 49.0946Z" fill="#FEFEFE"/>
<path id="Fill 54" fill-rule="evenodd" clip-rule="evenodd" d="M241.757 49.3385C241.419 50.7145 240.032 51.5559 238.654 51.2177C237.281 50.8823 236.439 49.4931 236.775 48.1171C237.113 46.741 238.502 45.8997 239.875 46.2378C241.251 46.5733 242.092 47.9624 241.757 49.3385Z" fill="#1A1E1D"/>
<path id="Fill 55" fill-rule="evenodd" clip-rule="evenodd" d="M239.175 47.7158C239.01 48.3877 238.331 48.8007 237.656 48.6365C236.984 48.4698 236.571 47.7927 236.738 47.1182C236.902 46.4463 237.582 46.0334 238.254 46.2001C238.926 46.3642 239.339 47.0438 239.175 47.7158Z" fill="#FEFEFE"/>
<path id="Fill 56" fill-rule="evenodd" clip-rule="evenodd" d="M232.352 58.9226C232.273 58.9126 232.195 58.8992 232.116 58.8875C230.785 58.6623 229.639 58.0883 229.121 57.3925C228.909 57.1021 229.002 56.715 229.327 56.5248C229.654 56.3362 230.095 56.4163 230.31 56.7067C230.556 57.037 231.307 57.4759 232.383 57.6578C233.078 57.7829 234.404 57.8613 235.584 57.1272C235.903 56.9286 236.344 56.9953 236.571 57.279C236.798 57.561 236.72 57.9514 236.399 58.1517C235.268 58.8525 233.837 59.1245 232.352 58.9226Z" fill="#1A1E1D"/>
<path id="Fill 57" fill-rule="evenodd" clip-rule="evenodd" d="M149.327 326.699C148.792 324.992 146.467 322.916 141.45 324.614C137.857 325.829 132.088 329.254 129.295 331.726C130.745 328.135 132.186 321.171 132.186 317.213C132.186 311.726 129.41 310.327 127.686 310.327C125.967 310.327 123.35 311.993 123.35 317.48C123.35 321.42 124.698 328.191 126.09 331.721C123.262 329.176 117.348 325.595 113.732 324.37C108.715 322.677 106.585 324.992 106.05 326.699C105.52 328.402 106.231 331.509 111.243 333.203C114.837 334.423 121.436 335.182 125.096 334.888C121.896 336.908 116.799 341.659 114.563 344.857C111.469 349.299 112.923 352.13 114.315 353.184C115.712 354.238 118.766 354.496 121.865 350.054C124.084 346.869 126.82 340.568 127.686 336.853C128.539 340.646 131.302 347.163 133.534 350.367C136.632 354.804 139.664 354.238 141.061 353.184C142.453 352.13 143.629 349.184 140.535 344.742C138.312 341.562 133.397 336.904 130.276 334.897C134.002 335.228 140.809 334.501 144.425 333.281C149.437 331.588 149.857 328.402 149.327 326.699Z" fill="url(#paint1_linear_272_4956)"/>
<path id="Fill 58" fill-rule="evenodd" clip-rule="evenodd" d="M180.276 206.807C180.316 205.898 179.504 204.476 176.627 204.364C174.565 204.282 170.992 204.857 169.111 205.522C170.507 204.076 172.512 201.019 173.229 199.131C174.229 196.512 173.061 195.331 172.18 195.017C171.3 194.698 169.659 195.013 168.658 197.631C167.942 199.512 167.398 202.992 167.47 204.931C166.485 203.194 164.108 200.401 162.483 199.15C160.222 197.418 158.705 198.132 158.125 198.851C157.54 199.566 157.344 201.178 159.601 202.911C161.218 204.15 164.46 205.727 166.381 206.26C164.376 206.636 160.902 207.965 159.181 209.08C156.784 210.63 157.016 212.25 157.536 213.008C158.057 213.769 159.577 214.453 161.971 212.903C163.684 211.792 166.233 209.286 167.354 207.674C167.097 209.639 167.33 213.26 167.886 215.199C168.666 217.887 170.323 218.175 171.228 217.926C172.132 217.681 173.273 216.492 172.496 213.8C171.936 211.873 170.267 208.75 169.034 207.219C170.883 208.058 174.501 208.967 176.57 209.049C179.448 209.162 180.24 207.716 180.276 206.807Z" fill="#DFE1EC"/>
<path id="Fill 59" fill-rule="evenodd" clip-rule="evenodd" d="M428.224 110.575C427.363 110.025 425.557 110.007 423.913 112.705C422.731 114.64 421.373 118.401 421.011 120.584C420.361 118.426 418.477 114.774 417.04 113.017C415.043 110.578 413.281 111.037 412.502 111.705C411.726 112.371 411.151 114.126 413.146 116.565C414.579 118.31 417.65 120.797 419.565 121.822C417.361 121.793 413.388 122.497 411.311 123.357C408.431 124.548 408.311 126.407 408.691 127.371C409.072 128.332 410.521 129.437 413.403 128.244C415.467 127.389 418.726 125.164 420.268 123.618C419.558 125.755 418.985 129.844 419.141 132.13C419.358 135.306 421.047 135.997 422.058 135.924C423.07 135.851 424.543 134.778 424.326 131.605C424.17 129.328 423.11 125.468 422.151 123.486C423.918 124.839 427.534 126.659 429.708 127.214C432.721 127.984 433.884 126.552 434.13 125.545C434.374 124.536 433.833 122.77 430.82 122C428.659 121.45 424.75 121.288 422.611 121.609C424.412 120.308 427.221 117.347 428.408 115.401C430.052 112.703 429.085 111.126 428.224 110.575Z" fill="#DFE1EC"/>
<path id="Fill 94" fill-rule="evenodd" clip-rule="evenodd" d="M577.913 72.4831C571.238 69.9665 565.828 65.7965 562.533 60.6286L559.851 56.4229L557.73 59.9903C554.422 65.5511 548.697 70.0276 541.562 72.6271L536.769 74.3762L541.716 76.3097C547.664 78.635 552.586 82.2876 555.851 86.8011L559.851 92.3284L562.924 87.8081C565.985 83.3074 570.677 79.6029 576.418 77.1543L582.934 74.3762L577.913 72.4831Z" fill="#E8E9EB"/>
<path id="Fill 95" fill-rule="evenodd" clip-rule="evenodd" d="M596.647 43.0584C594.423 42.3396 592.619 41.1473 591.522 39.6705L590.628 38.4697L589.92 39.4887C588.819 41.0775 586.91 42.3565 584.532 43.0996L582.933 43.5996L584.582 44.1514C586.566 44.8163 588.207 45.8596 589.294 47.1492L590.628 48.7285L591.652 47.4378C592.671 46.1514 594.236 45.0922 596.15 44.3935L598.322 43.5996L596.647 43.0584Z" fill="#E8E9EB"/>
<path id="Fill 96" fill-rule="evenodd" clip-rule="evenodd" d="M542.789 55.8817C540.565 55.1629 538.761 53.9716 537.663 52.4948L536.769 51.293L536.062 52.312C534.96 53.9007 533.051 55.1798 530.673 55.9229L529.075 56.4229L530.726 56.9757C532.707 57.6395 534.348 58.6829 535.436 59.9725L536.769 61.5517L537.793 60.261C538.814 58.9746 540.378 57.9154 542.291 57.2167L544.463 56.4229L542.789 55.8817Z" fill="#E8E9EB"/>
<path id="Stroke 97" d="M547.641 95.8755C517.149 114.672 529.879 138.345 544.641 148.376" stroke="#E8E9EB" stroke-width="0.854895"/>
</g>
</g>
<defs>
<linearGradient id="paint0_linear_272_4956" x1="518.816" y1="144.904" x2="435.311" y2="215.757" gradientUnits="userSpaceOnUse">
<stop stop-color="#FF8960"/>
<stop offset="1" stop-color="#FF62A5"/>
</linearGradient>
<linearGradient id="paint1_linear_272_4956" x1="127.702" y1="288.527" x2="84.1022" y2="332.127" gradientUnits="userSpaceOnUse">
<stop stop-color="#FF8960"/>
<stop offset="1" stop-color="#FF62A5"/>
</linearGradient>
</defs>
</svg>
