<svg width="636" height="519" viewBox="0 0 636 519" fill="none" xmlns="http://www.w3.org/2000/svg">
<g id="No Results">
<g id="circle">
<path id="Stroke 1" d="M21.7126 237.782V243.159" stroke="#D2D8DF" stroke-width="1.74502" stroke-linecap="round"/>
<g id="Group 8">
<path id="Stroke 2" d="M9.63776 240.694L14.0313 245.217" stroke="#D2D8DF" stroke-width="1.74502" stroke-linecap="round"/>
<path id="Stroke 4" d="M4.5 252.732H10.7123" stroke="#D2D8DF" stroke-width="1.74502" stroke-linecap="round"/>
<path id="Stroke 6" d="M9.13623 264.987L13.5297 260.464" stroke="#D2D8DF" stroke-width="1.74502" stroke-linecap="round"/>
</g>
<path id="Stroke 9" d="M21.7126 266.456V261.079" stroke="#D2D8DF" stroke-width="1.74502" stroke-linecap="round"/>
<path id="Stroke 10" d="M30.674 262.871L27.0895 259.286" stroke="#D2D8DF" stroke-width="1.74502" stroke-linecap="round"/>
<path id="Stroke 11" d="M37.8431 253.91H32.4664" stroke="#D2D8DF" stroke-width="1.74502" stroke-linecap="round"/>
<path id="Stroke 12" d="M34.2586 241.365L30.6742 244.95" stroke="#D2D8DF" stroke-width="1.74502" stroke-linecap="round"/>
<path id="Stroke 13" d="M310.26 3V6.58444" stroke="#D2D8DF" stroke-width="1.74502" stroke-linecap="round"/>
<path id="Stroke 15" d="M299.508 13.752H303.093" stroke="#D2D8DF" stroke-width="1.74502" stroke-linecap="round"/>
<path id="Stroke 16" d="M310.26 24.5053V20.9209" stroke="#D2D8DF" stroke-width="1.74502" stroke-linecap="round"/>
<path id="Stroke 17" d="M319.221 13.752H315.637" stroke="#D2D8DF" stroke-width="1.74502" stroke-linecap="round"/>
<path id="Stroke 18" d="M102.364 153.548V158.925" stroke="#D2D8DF" stroke-width="1.74502" stroke-linecap="round"/>
<path id="Stroke 19" d="M86.2333 169.676H91.61" stroke="#D2D8DF" stroke-width="1.74502" stroke-linecap="round"/>
<path id="Stroke 20" d="M102.364 184.014V178.638" stroke="#D2D8DF" stroke-width="1.74502" stroke-linecap="round"/>
<path id="Stroke 21" d="M116.7 169.676H111.323" stroke="#D2D8DF" stroke-width="1.74502" stroke-linecap="round"/>
<g id="Group 42">
<path id="Stroke 22" d="M488.146 348.967C492.429 348.967 495.903 352.441 495.903 356.726C495.903 361.011 492.429 364.484 488.146 364.484C483.863 364.484 480.389 361.011 480.389 356.726" stroke="#D2D8DF" stroke-width="1.74502" stroke-linecap="round"/>
<path id="Fill 26" fill-rule="evenodd" clip-rule="evenodd" d="M523.646 278.577C528.251 277.14 535.311 271.508 536.945 265.447C538.427 270.804 544.64 277.14 550.245 277.62C543.935 279.854 537.902 286.491 536.945 291.705C536.294 286.39 527.95 279.351 523.646 278.577Z" fill="#EBECEE"/>
<path id="Fill 28" fill-rule="evenodd" clip-rule="evenodd" d="M50.8788 346.578C53.1824 345.859 56.7108 343.044 57.5278 340.014C58.2688 342.691 61.3742 345.859 64.1769 346.1C61.0228 347.215 58.0071 350.535 57.5278 353.142C57.2022 350.484 53.0302 346.964 50.8788 346.578Z" fill="#EBECEE"/>
<path id="Fill 30" fill-rule="evenodd" clip-rule="evenodd" d="M93.6279 97.2671C93.6279 100.591 90.9348 103.283 87.6133 103.283C84.2903 103.283 81.5988 100.591 81.5988 97.2671C81.5988 93.9448 84.2903 91.251 87.6133 91.251C90.9348 91.251 93.6279 93.9448 93.6279 97.2671Z" fill="#D1D8DF"/>
<path id="Fill 32" fill-rule="evenodd" clip-rule="evenodd" d="M495.254 113.421C495.254 118.974 490.751 123.476 485.201 123.476C479.647 123.476 475.147 118.974 475.147 113.421C475.147 107.867 479.647 103.365 485.201 103.365C490.751 103.365 495.254 107.867 495.254 113.421Z" fill="#EBECEE"/>
<path id="Fill 34" fill-rule="evenodd" clip-rule="evenodd" d="M634.499 86.1756C634.499 90.5815 630.93 94.152 626.526 94.152C622.122 94.152 618.552 90.5815 618.552 86.1756C618.552 81.7696 622.122 78.1992 626.526 78.1992C630.93 78.1992 634.499 81.7696 634.499 86.1756Z" fill="#EBECEE"/>
<path id="Stroke 36" fill-rule="evenodd" clip-rule="evenodd" d="M206.032 458.702C206.032 461.48 203.781 463.731 201.004 463.731C198.229 463.731 195.979 461.48 195.979 458.702C195.979 455.925 198.229 453.674 201.004 453.674C203.781 453.674 206.032 455.925 206.032 458.702Z" stroke="#D2D8DF" stroke-width="1.74502" stroke-linecap="round"/>
<path id="Stroke 38" fill-rule="evenodd" clip-rule="evenodd" d="M203.042 58.6157C203.042 61.9396 200.349 64.6319 197.028 64.6319C193.706 64.6319 191.013 61.9396 191.013 58.6157C191.013 55.2934 193.706 52.5996 197.028 52.5996C200.349 52.5996 203.042 55.2934 203.042 58.6157Z" stroke="#D2D8DF" stroke-width="1.74502" stroke-linecap="round"/>
<path id="Stroke 40" fill-rule="evenodd" clip-rule="evenodd" d="M356.463 514.384C352.62 515.847 348.319 513.916 346.857 510.073C345.394 506.229 347.324 501.925 351.169 500.463C355.01 499.001 359.312 500.931 360.774 504.775C362.238 508.619 360.307 512.922 356.463 514.384Z" stroke="#D2D8DF" stroke-width="1.74502" stroke-linecap="round"/>
</g>
</g>
<g id="search">
<g id="documents">
<path id="Fill 1" fill-rule="evenodd" clip-rule="evenodd" d="M354.172 372.198H207.201C196.857 372.198 188.389 363.706 188.389 353.326V143.74C188.389 133.36 196.857 124.872 207.201 124.872H354.172C364.52 124.872 372.988 133.36 372.988 143.74V353.326C372.988 363.706 364.52 372.198 354.172 372.198Z" fill="#E0E2EE"/>
<path id="Fill 3" fill-rule="evenodd" clip-rule="evenodd" d="M341.628 381.16H194.658C184.313 381.16 175.846 372.668 175.846 362.288V152.702C175.846 142.322 184.313 133.834 194.658 133.834H341.628C351.977 133.834 360.444 142.322 360.444 152.702V362.288C360.444 372.668 351.977 381.16 341.628 381.16Z" fill="#E8EBF2"/>
<path id="Fill 5" fill-rule="evenodd" clip-rule="evenodd" d="M329.424 388.234H182.15C171.784 388.234 163.299 379.776 163.299 369.44V160.721C163.299 150.385 171.784 141.932 182.15 141.932H329.424C339.794 141.932 348.279 150.385 348.279 160.721V369.44C348.279 379.776 339.794 388.234 329.424 388.234Z" fill="#D8DBEA"/>
<path id="Fill 8" fill-rule="evenodd" clip-rule="evenodd" d="M329.424 388.234H182.15C171.784 388.234 163.299 379.776 163.299 369.44V160.721C163.299 150.385 171.784 141.932 182.15 141.932H329.424C339.794 141.932 348.279 150.385 348.279 160.721V369.44C348.279 379.776 339.794 388.234 329.424 388.234Z" fill="#F1F2F7"/>
<path id="Fill 11" fill-rule="evenodd" clip-rule="evenodd" d="M308.195 205.522H199.416C196.309 205.522 193.766 203.103 193.766 200.147C193.766 197.188 196.309 194.769 199.416 194.769H308.195C311.302 194.769 313.845 197.188 313.845 200.147C313.845 203.103 311.302 205.522 308.195 205.522Z" fill="#E0E2EE"/>
<path id="Fill 13" fill-rule="evenodd" clip-rule="evenodd" d="M308.195 237.781H199.416C196.309 237.781 193.766 235.361 193.766 232.406C193.766 229.447 196.309 227.027 199.416 227.027H308.195C311.302 227.027 313.845 229.447 313.845 232.406C313.845 235.361 311.302 237.781 308.195 237.781Z" fill="#E0E2EE"/>
<path id="Fill 15" fill-rule="evenodd" clip-rule="evenodd" d="M308.195 270.042H199.416C196.309 270.042 193.766 267.623 193.766 264.668C193.766 261.712 196.309 259.289 199.416 259.289H308.195C311.302 259.289 313.845 261.712 313.845 264.668C313.845 267.623 311.302 270.042 308.195 270.042Z" fill="#E0E2EE"/>
<path id="Fill 17" fill-rule="evenodd" clip-rule="evenodd" d="M308.195 302.301H199.416C196.309 302.301 193.766 299.882 193.766 296.927C193.766 293.967 196.309 291.548 199.416 291.548H308.195C311.302 291.548 313.845 293.967 313.845 296.927C313.845 299.882 311.302 302.301 308.195 302.301Z" fill="#E0E2EE"/>
<path id="Fill 19" fill-rule="evenodd" clip-rule="evenodd" d="M256.197 334.563H199.44C196.32 334.563 193.766 332.144 193.766 329.188C193.766 326.229 196.32 323.81 199.44 323.81H256.197C259.317 323.81 261.871 326.229 261.871 329.188C261.871 332.144 259.317 334.563 256.197 334.563Z" fill="#E0E2EE"/>
</g>
<g id="search_2">
<path id="Fill 21" fill-rule="evenodd" clip-rule="evenodd" d="M370.754 292.868C349.002 314.616 315.328 317.069 290.881 300.278C287.757 298.094 284.783 295.641 282.01 292.868C280.582 291.445 279.237 289.977 277.969 288.431C275.433 285.344 273.212 282.051 271.392 278.649C268.185 272.903 266.005 266.806 264.815 260.504C260.974 240.74 266.717 219.466 282.01 204.18C297.34 188.848 318.617 183.143 338.384 186.947C344.683 188.173 350.786 190.353 356.533 193.523C359.94 195.383 363.187 197.604 366.28 200.14C367.821 201.403 369.29 202.753 370.713 204.18C373.491 206.953 375.981 209.921 378.125 213.05C394.923 237.488 392.465 271.161 370.754 292.868Z" fill="white" fill-opacity="0.1"/>
<path id="Fill 23" fill-rule="evenodd" clip-rule="evenodd" d="M364.664 288.585C342.035 311.219 305.362 311.215 282.728 288.585C260.124 265.981 260.124 229.303 282.757 206.674C305.362 184.069 342.035 184.069 364.639 206.674C387.269 229.303 387.269 265.981 364.664 288.585ZM376.279 195.047C347.232 166 300.162 166 271.115 195.047C242.072 224.09 242.047 271.189 271.09 300.237C297.526 326.664 338.962 329.048 368.106 307.349C370.952 305.226 373.694 302.847 376.309 300.237C378.919 297.622 381.299 294.88 383.417 292.034C405.116 262.885 402.711 221.479 376.279 195.047Z" fill="#E0E2EE"/>
<path id="Fill 25" fill-rule="evenodd" clip-rule="evenodd" d="M490.596 409.73L489.376 410.949C481.309 419.021 468.097 419.021 460.025 410.949L385.532 336.456L416.103 305.886L490.596 380.379C498.668 388.451 498.668 401.658 490.596 409.73Z" fill="url(#paint0_linear_254_2999)"/>
<path id="Fill 27" fill-rule="evenodd" clip-rule="evenodd" d="M385.025 289.755L407.038 311.768L391.41 327.391L369.401 305.378C372.306 303.213 375.099 300.785 377.772 298.121C380.436 295.457 382.864 292.66 385.025 289.755Z" fill="#E0E2EE"/>
<path id="Fill 29" fill-rule="evenodd" clip-rule="evenodd" d="M489.48 379.462L459.104 409.834L453.635 404.361L484.007 373.989L489.48 379.462Z" fill="#EF545F"/>
<path id="Fill 31" fill-rule="evenodd" clip-rule="evenodd" d="M417.792 306.939L386.584 338.147L381.948 333.511L413.155 302.303L417.792 306.939Z" fill="url(#paint1_linear_254_2999)"/>
<path id="Fill 33" fill-rule="evenodd" clip-rule="evenodd" d="M349.687 198.887L273.153 275.418C270.27 270.252 268.311 264.771 267.245 259.105L333.373 192.976C339.035 194.083 344.521 196.038 349.687 198.887Z" fill="white" fill-opacity="0.5"/>
<path id="Fill 35" fill-rule="evenodd" clip-rule="evenodd" d="M374.778 217.077L292.037 295.131C289.074 293.181 286.253 290.985 283.623 288.504C282.269 287.227 280.989 285.917 279.791 284.534L363.54 205.521C365.007 206.655 366.4 207.863 367.749 209.14C370.379 211.621 372.745 214.278 374.778 217.077Z" fill="white" fill-opacity="0.5"/>
</g>
</g>
</g>
<defs>
<linearGradient id="paint0_linear_254_2999" x1="441.091" y1="250.327" x2="329.973" y2="361.445" gradientUnits="userSpaceOnUse">
<stop stop-color="#FF8960"/>
<stop offset="1" stop-color="#FF62A5"/>
</linearGradient>
<linearGradient id="paint1_linear_254_2999" x1="399.87" y1="284.381" x2="364.025" y2="320.225" gradientUnits="userSpaceOnUse">
<stop stop-color="#FF404E"/>
<stop offset="1" stop-color="#FF62A5"/>
</linearGradient>
</defs>
</svg>
