<svg width="26" height="26" viewBox="0 0 26 26" fill="none" xmlns="http://www.w3.org/2000/svg">
<path d="M13 6.97668V10.5842" stroke="white" stroke-width="1.5" stroke-miterlimit="10" stroke-linecap="round"/>
<path d="M13.0217 2.16669C9.03501 2.16669 5.80668 5.39502 5.80668 9.38169V11.6567C5.80668 12.3934 5.50334 13.4984 5.12418 14.1267L3.74834 16.4234C2.90334 17.8425 3.48834 19.4242 5.04834 19.9442C10.2267 21.6667 15.8275 21.6667 21.0058 19.9442C22.4683 19.4567 23.0967 17.745 22.3058 16.4234L20.93 14.1267C20.5508 13.4984 20.2475 12.3825 20.2475 11.6567V9.38169C20.2367 5.41669 16.9867 2.16669 13.0217 2.16669Z" stroke="white" stroke-width="1.5" stroke-miterlimit="10" stroke-linecap="round"/>
<path d="M16.6075 20.3883C16.6075 22.3708 14.9825 23.9958 13 23.9958C12.0141 23.9958 11.1041 23.5841 10.4541 22.9341C9.80412 22.2841 9.39246 21.3741 9.39246 20.3883" stroke="white" stroke-width="1.5" stroke-miterlimit="10"/>
</svg>
