<svg width="36" height="36" viewBox="0 0 36 36" fill="none" xmlns="http://www.w3.org/2000/svg">
<path d="M31.0489 4.26278V31.8546C31.0489 32.1895 30.9159 32.5107 30.6791 32.7475C30.4422 32.9843 30.121 33.1174 29.7861 33.1174H10.0362C9.70131 33.1174 9.38012 32.9843 9.1433 32.7475C8.90648 32.5107 8.77344 32.1895 8.77344 31.8546V12.433L15.7187 3H29.7861C30.121 3 30.4422 3.13304 30.6791 3.36986C30.9159 3.60668 31.0489 3.92787 31.0489 4.26278Z" fill="#EDEEEF"/>
<path d="M15.7184 3.0127V11.1134C15.7184 11.4484 15.5854 11.7695 15.3486 12.0064C15.1117 12.2432 14.7905 12.3762 14.4556 12.3762H8.80469L15.7184 3.0127Z" fill="#CFD0D1"/>
<path d="M22.5124 20.2495H5.26278C4.56537 20.2495 4 20.8149 4 21.5123V27.8515C4 28.5489 4.56537 29.1142 5.26278 29.1142H22.5124C23.2098 29.1142 23.7752 28.5489 23.7752 27.8515V21.5123C23.7752 20.8149 23.2098 20.2495 22.5124 20.2495Z" fill="#FF3717"/>
<path d="M10.415 25.1933V26.5571H9.31641V22.8129H10.8317C11.1267 22.797 11.4216 22.8444 11.6968 22.9518C11.8926 23.0405 12.0574 23.1856 12.1703 23.3685C12.2845 23.5591 12.3435 23.7777 12.3408 23.9999C12.3482 24.1611 12.3204 24.322 12.2593 24.4714C12.1983 24.6208 12.1054 24.7551 11.9872 24.8649C11.724 25.0939 11.3821 25.2116 11.0338 25.1933H10.415ZM10.415 24.3914H10.7812C11.1032 24.3914 11.2611 24.2651 11.2611 24.0189C11.2611 23.7726 11.1159 23.6653 10.8191 23.6653H10.415V24.3914ZM12.7512 26.5571V22.8129H14.1339C14.3859 22.7939 14.6389 22.8343 14.8724 22.9308C15.106 23.0273 15.3137 23.1772 15.4788 23.3685C15.7763 23.7336 15.9351 24.1921 15.9271 24.6629C15.9537 25.163 15.7812 25.6534 15.4472 26.0267C15.2887 26.2025 15.0933 26.3412 14.875 26.4328C14.6568 26.5245 14.421 26.5669 14.1844 26.5571H12.7512ZM13.8498 25.6921H14.1339C14.2284 25.6904 14.3208 25.6639 14.4017 25.6151C14.4827 25.5663 14.5493 25.497 14.5948 25.4142C14.7271 25.1867 14.7907 24.9258 14.7779 24.6629C14.7829 24.4172 14.7265 24.1741 14.6138 23.9557C14.5695 23.8668 14.5009 23.7923 14.416 23.7409C14.331 23.6895 14.2332 23.6633 14.1339 23.6653H13.8498V25.6921ZM18.6231 25.1554H17.4614V26.5571H16.3943V22.8129H18.9767V23.7032H17.4614V24.3346H18.6231V25.1554Z" fill="#EDEEEF"/>
</svg>
