<svg width="20" height="20" viewBox="0 0 20 20" fill="none" xmlns="http://www.w3.org/2000/svg">
<path fill-rule="evenodd" clip-rule="evenodd" d="M6.05217 2.71737C6.15182 1.77569 6.94856 1.04199 7.91667 1.04199H12.0833C13.0514 1.04199 13.8482 1.77569 13.9478 2.71737C14.5837 2.73032 15.1336 2.76321 15.603 2.84945C16.2347 2.96548 16.7723 3.18651 17.2097 3.62395C17.7113 4.12555 17.9271 4.75711 18.0279 5.5072C18.125 6.22967 18.125 7.14828 18.125 8.28794V13.3794C18.125 14.519 18.125 15.4376 18.0279 16.1601C17.9271 16.9102 17.7113 17.5418 17.2097 18.0434C16.7081 18.545 16.0765 18.7607 15.3265 18.8616C14.604 18.9587 13.6854 18.9587 12.5457 18.9587H7.45428C6.31462 18.9587 5.39601 18.9587 4.67354 18.8616C3.92345 18.7607 3.29189 18.545 2.79029 18.0434C2.2887 17.5418 2.07295 16.9102 1.9721 16.1601C1.87497 15.4376 1.87498 14.519 1.875 13.3794V8.28793C1.87498 7.14827 1.87497 6.22967 1.9721 5.5072C2.07295 4.75711 2.2887 4.12555 2.79029 3.62395C3.22773 3.18651 3.7653 2.96548 4.39696 2.84945C4.86644 2.76321 5.41627 2.73032 6.05217 2.71737ZM6.05414 3.96771C5.45565 3.98049 4.99447 4.01061 4.62279 4.07888C4.15045 4.16564 3.87705 4.30496 3.67418 4.50783C3.44354 4.73847 3.29317 5.06228 3.21096 5.67376C3.12633 6.30322 3.125 7.13748 3.125 8.33366V13.3337C3.125 14.5298 3.12633 15.3641 3.21096 15.9936C3.29317 16.605 3.44354 16.9288 3.67418 17.1595C3.90481 17.3901 4.22862 17.5405 4.8401 17.6227C5.46956 17.7073 6.30382 17.7087 7.5 17.7087H12.5C13.6962 17.7087 14.5304 17.7073 15.1599 17.6227C15.7714 17.5405 16.0952 17.3901 16.3258 17.1595C16.5565 16.9288 16.7068 16.605 16.789 15.9936C16.8737 15.3641 16.875 14.5298 16.875 13.3337V8.33366C16.875 7.13748 16.8737 6.30322 16.789 5.67376C16.7068 5.06228 16.5565 4.73847 16.3258 4.50783C16.1229 4.30496 15.8496 4.16564 15.3772 4.07888C15.0055 4.01061 14.5443 3.98049 13.9459 3.96771C13.8381 4.90084 13.0453 5.62533 12.0833 5.62533H7.91667C6.95466 5.62533 6.16187 4.90084 6.05414 3.96771ZM7.91667 2.29199C7.57149 2.29199 7.29167 2.57181 7.29167 2.91699V3.75033C7.29167 4.0955 7.57149 4.37533 7.91667 4.37533H12.0833C12.4285 4.37533 12.7083 4.0955 12.7083 3.75033V2.91699C12.7083 2.57181 12.4285 2.29199 12.0833 2.29199H7.91667ZM5.20833 8.75033C5.20833 8.40515 5.48816 8.12533 5.83333 8.12533H14.1667C14.5118 8.12533 14.7917 8.40515 14.7917 8.75033C14.7917 9.0955 14.5118 9.37533 14.1667 9.37533H5.83333C5.48816 9.37533 5.20833 9.0955 5.20833 8.75033ZM6.04167 11.667C6.04167 11.3218 6.32149 11.042 6.66667 11.042H13.3333C13.6785 11.042 13.9583 11.3218 13.9583 11.667C13.9583 12.0122 13.6785 12.292 13.3333 12.292H6.66667C6.32149 12.292 6.04167 12.0122 6.04167 11.667ZM6.875 14.5837C6.875 14.2385 7.15482 13.9587 7.5 13.9587H12.5C12.8452 13.9587 13.125 14.2385 13.125 14.5837C13.125 14.9288 12.8452 15.2087 12.5 15.2087H7.5C7.15482 15.2087 6.875 14.9288 6.875 14.5837Z" fill="#1E6BDD"/>
</svg>
