<svg width="23" height="23" viewBox="0 0 23 23" fill="none" xmlns="http://www.w3.org/2000/svg">
<g clip-path="url(#clip0_254_2971)">
<path d="M10.1282 2.04688C14.6822 2.04688 18.3782 5.74287 18.3782 10.2969C18.3782 14.8509 14.6822 18.5469 10.1282 18.5469C5.57423 18.5469 1.87823 14.8509 1.87823 10.2969C1.87823 5.74287 5.57423 2.04688 10.1282 2.04688ZM10.1282 16.7135C13.673 16.7135 16.5449 13.8416 16.5449 10.2969C16.5449 6.75121 13.673 3.88021 10.1282 3.88021C6.58257 3.88021 3.71157 6.75121 3.71157 10.2969C3.71157 13.8416 6.58257 16.7135 10.1282 16.7135ZM17.9062 16.7786L20.4994 19.371L19.2023 20.668L16.61 18.0748L17.9062 16.7786Z" fill="#ACADAE"/>
</g>
<defs>
<clipPath id="clip0_254_2971">
<rect width="22" height="22" fill="white" transform="translate(0.0449219 0.213867)"/>
</clipPath>
</defs>
</svg>
