<svg width="101" height="100" viewBox="0 0 101 100" fill="none" xmlns="http://www.w3.org/2000/svg">
<g clip-path="url(#clip0_254_3148)">
<path d="M96.9807 49.9979C98.5251 48.1995 99.6074 46.0514 100.134 43.7401C100.66 41.4287 100.614 39.0238 100.001 36.734C99.387 34.4443 98.224 32.3388 96.6125 30.6003C95.001 28.8618 92.9897 27.5427 90.753 26.7575C91.1912 24.4277 91.0544 22.0262 90.3544 19.7613C89.6543 17.4964 88.4122 15.4365 86.7358 13.7603C85.0594 12.0841 82.9994 10.8423 80.7344 10.1426C78.4694 9.44281 76.0678 9.30629 73.7381 9.74485C72.9535 7.50762 71.6347 5.49572 69.8961 3.88382C68.1576 2.27192 66.0519 1.10875 63.7618 0.49529C61.4717 -0.118173 59.0665 -0.163379 56.755 0.363595C54.4435 0.890569 52.2956 1.9738 50.4977 3.51923C48.6992 1.97486 46.5512 0.892609 44.2398 0.366363C41.9284 -0.159883 39.5235 -0.114231 37.2338 0.499356C34.944 1.11294 32.8386 2.27594 31.1 3.88744C29.3615 5.49895 28.0424 7.5103 27.2572 9.74701C24.9276 9.30917 22.5263 9.4463 20.2617 10.1465C17.9971 10.8467 15.9375 12.0889 14.2616 13.7652C12.5857 15.4415 11.3441 17.5014 10.6444 19.7662C9.94481 22.031 9.80829 24.4323 10.2467 26.7618C8.01002 27.547 5.99867 28.8661 4.38716 30.6046C2.77565 32.3432 1.61265 34.4486 0.999062 36.7384C0.385475 39.0281 0.339816 41.433 0.866062 43.7444C1.39231 46.0558 2.47458 48.2038 4.01895 50.0023C2.47411 51.8007 1.39151 53.9489 0.86511 56.2605C0.338714 58.5721 0.384412 60.9773 0.998269 63.2673C1.61213 65.5572 2.77557 67.6628 4.38763 69.4011C5.99969 71.1395 8.01167 72.4582 10.2489 73.2427C9.81008 75.5723 9.94644 77.9738 10.6462 80.2387C11.3459 82.5036 12.5878 84.5635 14.2641 86.2396C15.9405 87.9157 18.0006 89.1574 20.2656 89.8568C22.5306 90.5563 24.9321 90.6923 27.2616 90.2532C28.0468 92.4899 29.3658 94.5013 31.1044 96.1128C32.8429 97.7243 34.9483 98.8873 37.2381 99.5009C39.5278 100.114 41.9327 100.16 44.2441 99.6339C46.5555 99.1076 48.7036 98.0254 50.502 96.481C52.3004 98.0258 54.4486 99.1084 56.7603 99.6348C59.0719 100.161 61.477 100.116 63.767 99.5017C66.0569 98.8878 68.1625 97.7244 69.9008 96.1123C71.6392 94.5002 72.9579 92.4883 73.7425 90.251C76.0721 90.6897 78.4736 90.5533 80.7385 89.8536C83.0035 89.1538 85.0635 87.9119 86.7397 86.2357C88.416 84.5594 89.6579 82.4995 90.3576 80.2345C91.0574 77.9695 91.1938 75.568 90.7551 73.2384C92.992 72.4534 95.0035 71.1343 96.6151 69.3957C98.2267 67.6571 99.3896 65.5515 100.003 63.2616C100.616 60.9717 100.662 58.5667 100.135 56.2554C99.6084 53.944 98.5257 51.796 96.9807 49.9979Z" fill="#18C07A"/>
<path d="M41.5245 69.0843L27.6301 55.1985C27.1028 54.6703 26.8066 53.9545 26.8066 53.2082C26.8066 52.4618 27.1028 51.746 27.6301 51.2178L29.3181 49.5276C29.8463 49.0003 30.5621 48.7041 31.3085 48.7041C32.0548 48.7041 32.7706 49.0003 33.2988 49.5276L43.3989 59.6212L67.1854 34.3439C67.6973 33.8008 68.4037 33.483 69.1496 33.4602C69.8955 33.4375 70.62 33.7116 71.1639 34.2225L72.8975 35.8585C73.4412 36.3705 73.7594 37.0773 73.7822 37.8238C73.8049 38.5702 73.5304 39.2951 73.0188 39.8392L45.5724 69.0214C45.314 69.2968 45.0028 69.5175 44.6574 69.6702C44.312 69.823 43.9394 69.9047 43.5618 69.9106C43.1841 69.9164 42.8092 69.8463 42.4592 69.7044C42.1092 69.5624 41.7914 69.3515 41.5245 69.0843Z" fill="white"/>
</g>
<defs>
<clipPath id="clip0_254_3148">
<rect width="100" height="100" fill="white" transform="translate(0.5)"/>
</clipPath>
</defs>
</svg>
