<svg width="19" height="14" viewBox="0 0 19 14" fill="none" xmlns="http://www.w3.org/2000/svg">
<path d="M15.3188 5.44841C14.7804 2.71716 12.3817 0.666748 9.5 0.666748C7.21208 0.666748 5.225 1.96508 4.23542 3.86508C1.8525 4.11841 0 6.13716 0 8.58341C0 11.2038 2.12958 13.3334 4.75 13.3334H15.0417C17.2267 13.3334 19 11.5601 19 9.37508C19 7.28508 17.3771 5.59091 15.3188 5.44841ZM15.0417 11.7501H4.75C3.00042 11.7501 1.58333 10.333 1.58333 8.58341C1.58333 6.9605 2.79458 5.60675 4.40167 5.4405L5.24875 5.35341L5.64458 4.60133C6.39667 3.15258 7.86917 2.25008 9.5 2.25008C11.5742 2.25008 13.3633 3.72258 13.7671 5.75717L14.0046 6.94467L15.2158 7.03175C16.4508 7.11091 17.4167 8.148 17.4167 9.37508C17.4167 10.6813 16.3479 11.7501 15.0417 11.7501ZM6.33333 7.79175H8.35208V10.1667H10.6479V7.79175H12.6667L9.5 4.62508L6.33333 7.79175Z" fill="white"/>
</svg>
