<svg width="20" height="20" viewBox="0 0 20 20" fill="none" xmlns="http://www.w3.org/2000/svg">
<path fill-rule="evenodd" clip-rule="evenodd" d="M9.11965 1.04199H10.8803C12.4118 1.04198 13.6248 1.04197 14.5742 1.1696C15.5512 1.30096 16.342 1.57773 16.9656 2.20136C17.2097 2.44544 17.2097 2.84117 16.9656 3.08525C16.7216 3.32932 16.3258 3.32932 16.0817 3.08525C15.7291 2.73257 15.246 2.52118 14.4076 2.40846C13.5512 2.29332 12.4224 2.29199 10.8333 2.29199H9.16667C7.57765 2.29199 6.44876 2.29332 5.59237 2.40846C4.75397 2.52118 4.27093 2.73257 3.91825 3.08525C3.56558 3.43792 3.35419 3.92096 3.24147 4.75937C3.12633 5.61575 3.125 6.74464 3.125 8.33366V11.667C3.125 13.256 3.12633 14.3849 3.24147 15.2413C3.35419 16.0797 3.56558 16.5627 3.91825 16.9154C4.27093 17.2681 4.75397 17.4795 5.59237 17.5922C6.44876 17.7073 7.57765 17.7087 9.16667 17.7087H10.8333C12.4224 17.7087 13.5512 17.7073 14.4076 17.5922C15.246 17.4795 15.7291 17.2681 16.0817 16.9154C16.6617 16.3355 16.8373 15.4343 16.8678 13.3246C16.8728 12.9795 17.1567 12.7037 17.5018 12.7087C17.8469 12.7137 18.1227 12.9976 18.1177 13.3427C18.0884 15.3656 17.9575 16.8074 16.9656 17.7993C16.342 18.4229 15.5512 18.6997 14.5742 18.831C13.6248 18.9587 12.4118 18.9587 10.8803 18.9587H9.11966C7.58819 18.9587 6.37516 18.9587 5.42581 18.831C4.4488 18.6997 3.65801 18.4229 3.03437 17.7993C2.41073 17.1757 2.13397 16.3849 2.00261 15.4078C1.87498 14.4585 1.87499 13.2455 1.875 11.714V8.28664C1.87499 6.75518 1.87498 5.54215 2.00261 4.59281C2.13397 3.61579 2.41073 2.825 3.03437 2.20136C3.65801 1.57773 4.4488 1.30096 5.42581 1.1696C6.37516 1.04197 7.58819 1.04198 9.11965 1.04199ZM15.0943 5.87163C15.9782 4.98767 17.4114 4.98767 18.2954 5.87163C19.1793 6.75558 19.1793 8.18875 18.2954 9.07271L14.3326 13.0355C14.117 13.2511 13.9712 13.397 13.8078 13.5244C13.6156 13.6743 13.4077 13.8029 13.1876 13.9077C13.0006 13.9969 12.8049 14.0621 12.5156 14.1585L10.7792 14.7372C10.3959 14.865 9.97323 14.7652 9.68749 14.4795C9.40175 14.1938 9.30197 13.7711 9.42976 13.3878L9.99689 11.6864C10.0008 11.6746 10.0047 11.6629 10.0085 11.6514C10.1049 11.3621 10.1701 11.1664 10.2593 10.9794C10.3641 10.7593 10.4927 10.5514 10.6426 10.3592C10.77 10.1958 10.9159 10.05 11.1315 9.83442C11.1401 9.82584 11.1488 9.81715 11.1576 9.80834L15.0943 5.87163ZM17.4115 6.75551C17.0157 6.35971 16.374 6.35971 15.9782 6.75551L15.8267 6.907C15.8349 6.9349 15.8443 6.96457 15.8552 6.99576C15.9335 7.2217 16.0823 7.52055 16.3644 7.80263C16.6464 8.0847 16.9453 8.23345 17.1712 8.31184C17.2024 8.32266 17.2321 8.33209 17.26 8.34031L17.4115 8.18882C17.8073 7.79303 17.8073 7.15131 17.4115 6.75551ZM16.3054 9.29495C16.0405 9.15581 15.7544 8.96044 15.4805 8.68651C15.2066 8.41257 15.0112 8.12654 14.872 7.86164L12.0415 10.6922C11.7906 10.9431 11.7025 11.0327 11.6282 11.128C11.5341 11.2486 11.4535 11.3791 11.3877 11.5171C11.3357 11.6262 11.295 11.745 11.1827 12.0816L10.8492 13.0824L11.0846 13.3178L12.0854 12.9842C12.422 12.872 12.5408 12.8313 12.6499 12.7793C12.7879 12.7135 12.9184 12.6329 13.039 12.5388C13.1343 12.4645 13.2239 12.3764 13.4748 12.1255L16.3054 9.29495ZM6.04167 7.50033C6.04167 7.15515 6.32149 6.87533 6.66667 6.87533H12.0833C12.4285 6.87533 12.7083 7.15515 12.7083 7.50033C12.7083 7.8455 12.4285 8.12533 12.0833 8.12533H6.66667C6.32149 8.12533 6.04167 7.8455 6.04167 7.50033ZM6.04167 10.8337C6.04167 10.4885 6.32149 10.2087 6.66667 10.2087H8.75C9.09518 10.2087 9.375 10.4885 9.375 10.8337C9.375 11.1788 9.09518 11.4587 8.75 11.4587H6.66667C6.32149 11.4587 6.04167 11.1788 6.04167 10.8337ZM6.04167 14.167C6.04167 13.8218 6.32149 13.542 6.66667 13.542H7.91667C8.26185 13.542 8.54167 13.8218 8.54167 14.167C8.54167 14.5122 8.26185 14.792 7.91667 14.792H6.66667C6.32149 14.792 6.04167 14.5122 6.04167 14.167Z" fill="#1E6BDD"/>
</svg>
